<svg xmlns="http://www.w3.org/2000/svg" xmlns:xlink="http://www.w3.org/1999/xlink" width="500" zoomAndPan="magnify" viewBox="0 0 375 374.999991" height="500" preserveAspectRatio="xMidYMid meet" version="1.0"><defs><g/><clipPath id="id1"><path d="M 156 138 L 231.117188 138 L 231.117188 195.898438 L 156 195.898438 Z M 156 138 " clip-rule="nonzero"/></clipPath><clipPath id="id2"><path d="M 144.117188 117.148438 L 219 117.148438 L 219 175 L 144.117188 175 Z M 144.117188 117.148438 " clip-rule="nonzero"/></clipPath></defs><rect x="-37.5" width="450" fill="#ffffff" y="-37.499999" height="449.999989" fill-opacity="1"/><rect x="-37.5" width="450" fill="#ffffff" y="-37.499999" height="449.999989" fill-opacity="1"/><g fill="#272727" fill-opacity="1"><g transform="translate(94.936978, 222.025841)"><g><path d="M 14.46875 -15.078125 L 8.84375 -15.078125 L 8.84375 0 L 5.84375 0 L 5.84375 -15.078125 L 0.234375 -15.078125 L 0.234375 -17.78125 L 14.46875 -17.78125 Z M 14.46875 -15.078125 "/></g></g></g><g fill="#272727" fill-opacity="1"><g transform="translate(113.648864, 222.025841)"><g><path d="M 15.03125 -15.078125 L 5.328125 -15.078125 L 5.328125 -10.28125 L 14.015625 -10.28125 L 14.015625 -7.59375 L 5.328125 -7.59375 L 5.328125 -2.6875 L 15.34375 -2.6875 L 15.34375 0 L 2.34375 0 L 2.34375 -17.78125 L 15.03125 -17.78125 Z M 15.03125 -15.078125 "/></g></g></g><g fill="#272727" fill-opacity="1"><g transform="translate(134.315643, 222.025841)"><g><path d="M 13.8125 -4.015625 L 4.84375 -4.015625 L 3.15625 0 L 0.03125 0 L 7.875 -17.78125 L 10.9375 -17.78125 L 18.71875 0 L 15.515625 0 Z M 12.671875 -6.671875 L 9.3125 -14.578125 L 5.96875 -6.671875 Z M 12.671875 -6.671875 "/></g></g></g><g fill="#272727" fill-opacity="1"><g transform="translate(157.064254, 222.025841)"><g><path d="M 21.125 0 L 18.359375 0 L 18.328125 -13.28125 L 12.71875 -1.859375 L 10.765625 -1.859375 L 5.15625 -13.28125 L 5.15625 0 L 2.34375 0 L 2.34375 -17.78125 L 5.890625 -17.78125 L 11.75 -5.96875 L 17.59375 -17.78125 L 21.125 -17.78125 Z M 21.125 0 "/></g></g></g><g fill="#272727" fill-opacity="1"><g transform="translate(184.560456, 222.025841)"><g><path d="M 20.625 0 L 17.546875 0 L 13.328125 -13.859375 L 9.0625 0 L 5.96875 0 L 0.078125 -17.78125 L 3.296875 -17.78125 L 7.625 -3.328125 L 11.90625 -17.75 L 14.859375 -17.78125 L 19.171875 -3.328125 L 23.46875 -17.78125 L 26.5625 -17.78125 Z M 20.625 0 "/></g></g></g><g fill="#272727" fill-opacity="1"><g transform="translate(214.87474, 222.025841)"><g><path d="M 3.578125 -15.265625 C 5.390625 -16.984375 7.625 -17.84375 10.28125 -17.84375 C 12.9375 -17.84375 15.171875 -16.984375 16.984375 -15.265625 C 18.796875 -13.554688 19.703125 -11.429688 19.703125 -8.890625 C 19.703125 -6.347656 18.796875 -4.207031 16.984375 -2.46875 C 15.171875 -0.738281 12.9375 0.125 10.28125 0.125 C 7.625 0.125 5.390625 -0.738281 3.578125 -2.46875 C 1.765625 -4.207031 0.859375 -6.347656 0.859375 -8.890625 C 0.859375 -11.429688 1.765625 -13.554688 3.578125 -15.265625 Z M 10.3125 -15.15625 C 8.550781 -15.15625 7.039062 -14.550781 5.78125 -13.34375 C 4.53125 -12.132812 3.90625 -10.648438 3.90625 -8.890625 C 3.90625 -7.128906 4.535156 -5.632812 5.796875 -4.40625 C 7.054688 -3.175781 8.554688 -2.5625 10.296875 -2.5625 C 12.046875 -2.5625 13.535156 -3.175781 14.765625 -4.40625 C 16.003906 -5.632812 16.625 -7.128906 16.625 -8.890625 C 16.625 -10.648438 16.003906 -12.132812 14.765625 -13.34375 C 13.535156 -14.550781 12.050781 -15.15625 10.3125 -15.15625 Z M 10.3125 -15.15625 "/></g></g></g><g fill="#272727" fill-opacity="1"><g transform="translate(239.451297, 222.025841)"><g><path d="M 13.609375 0 L 10.359375 -5.390625 C 10.191406 -5.367188 9.921875 -5.359375 9.546875 -5.359375 L 5.328125 -5.359375 L 5.328125 0 L 2.34375 0 L 2.34375 -17.78125 L 9.546875 -17.78125 C 11.816406 -17.78125 13.578125 -17.25 14.828125 -16.1875 C 16.078125 -15.125 16.703125 -13.628906 16.703125 -11.703125 C 16.703125 -10.285156 16.382812 -9.082031 15.75 -8.09375 C 15.113281 -7.113281 14.207031 -6.394531 13.03125 -5.9375 L 17.015625 0 Z M 5.328125 -8.046875 L 9.546875 -8.046875 C 12.421875 -8.046875 13.859375 -9.238281 13.859375 -11.625 C 13.859375 -13.925781 12.421875 -15.078125 9.546875 -15.078125 L 5.328125 -15.078125 Z M 5.328125 -8.046875 "/></g></g></g><g fill="#272727" fill-opacity="1"><g transform="translate(261.819084, 222.025841)"><g><path d="M 14.1875 0 L 8.359375 -7.84375 L 5.328125 -4.515625 L 5.328125 0 L 2.34375 0 L 2.34375 -17.78125 L 5.328125 -17.78125 L 5.328125 -8.578125 L 13.8125 -17.78125 L 17.34375 -17.78125 L 10.46875 -10.1875 L 17.796875 0 Z M 14.1875 0 "/></g></g></g><g fill="#272727" fill-opacity="1"><g transform="translate(141.270141, 243.746313)"><g><path d="M 7.921875 -8.265625 L 4.84375 -8.265625 L 4.84375 0 L 3.203125 0 L 3.203125 -8.265625 L 0.125 -8.265625 L 0.125 -9.734375 L 7.921875 -9.734375 Z M 7.921875 -8.265625 "/></g></g></g><g fill="#272727" fill-opacity="1"><g transform="translate(151.519271, 243.746313)"><g><path d="M 1.953125 -8.359375 C 2.953125 -9.304688 4.175781 -9.78125 5.625 -9.78125 C 7.082031 -9.78125 8.304688 -9.304688 9.296875 -8.359375 C 10.296875 -7.421875 10.796875 -6.253906 10.796875 -4.859375 C 10.796875 -3.472656 10.296875 -2.304688 9.296875 -1.359375 C 8.304688 -0.410156 7.082031 0.0625 5.625 0.0625 C 4.175781 0.0625 2.953125 -0.410156 1.953125 -1.359375 C 0.960938 -2.304688 0.46875 -3.472656 0.46875 -4.859375 C 0.46875 -6.253906 0.960938 -7.421875 1.953125 -8.359375 Z M 5.640625 -8.296875 C 4.679688 -8.296875 3.859375 -7.960938 3.171875 -7.296875 C 2.484375 -6.640625 2.140625 -5.828125 2.140625 -4.859375 C 2.140625 -3.898438 2.484375 -3.082031 3.171875 -2.40625 C 3.867188 -1.738281 4.691406 -1.40625 5.640625 -1.40625 C 6.597656 -1.40625 7.414062 -1.738281 8.09375 -2.40625 C 8.769531 -3.082031 9.109375 -3.898438 9.109375 -4.859375 C 9.109375 -5.828125 8.769531 -6.640625 8.09375 -7.296875 C 7.414062 -7.960938 6.597656 -8.296875 5.640625 -8.296875 Z M 5.640625 -8.296875 "/></g></g></g><g fill="#272727" fill-opacity="1"><g transform="translate(164.980143, 243.746313)"><g><path d="M 7.9375 -4.78125 L 9.375 -4.78125 L 9.375 -1.203125 C 8.875 -0.816406 8.28125 -0.507812 7.59375 -0.28125 C 6.914062 -0.0507812 6.25 0.0625 5.59375 0.0625 C 4.15625 0.0625 2.941406 -0.410156 1.953125 -1.359375 C 0.960938 -2.304688 0.46875 -3.472656 0.46875 -4.859375 C 0.46875 -6.253906 0.96875 -7.421875 1.96875 -8.359375 C 2.96875 -9.304688 4.207031 -9.78125 5.6875 -9.78125 C 6.375 -9.78125 7.046875 -9.65625 7.703125 -9.40625 C 8.367188 -9.15625 8.941406 -8.820312 9.421875 -8.40625 L 8.5 -7.203125 C 7.695312 -7.941406 6.757812 -8.3125 5.6875 -8.3125 C 4.695312 -8.3125 3.859375 -7.976562 3.171875 -7.3125 C 2.484375 -6.644531 2.140625 -5.828125 2.140625 -4.859375 C 2.140625 -3.890625 2.484375 -3.070312 3.171875 -2.40625 C 3.867188 -1.738281 4.710938 -1.40625 5.703125 -1.40625 C 6.453125 -1.40625 7.195312 -1.628906 7.9375 -2.078125 Z M 7.9375 -4.78125 "/></g></g></g><g fill="#272727" fill-opacity="1"><g transform="translate(177.592895, 243.746313)"><g><path d="M 8.234375 -8.265625 L 2.921875 -8.265625 L 2.921875 -5.625 L 7.671875 -5.625 L 7.671875 -4.15625 L 2.921875 -4.15625 L 2.921875 -1.46875 L 8.40625 -1.46875 L 8.40625 0 L 1.28125 0 L 1.28125 -9.734375 L 8.234375 -9.734375 Z M 8.234375 -8.265625 "/></g></g></g><g fill="#272727" fill-opacity="1"><g transform="translate(188.912607, 243.746313)"><g><path d="M 7.921875 -8.265625 L 4.84375 -8.265625 L 4.84375 0 L 3.203125 0 L 3.203125 -8.265625 L 0.125 -8.265625 L 0.125 -9.734375 L 7.921875 -9.734375 Z M 7.921875 -8.265625 "/></g></g></g><g fill="#272727" fill-opacity="1"><g transform="translate(199.161735, 243.746313)"><g><path d="M 9.71875 0 L 8.078125 0 L 8.078125 -4.03125 L 2.921875 -4.03125 L 2.921875 0 L 1.28125 0 L 1.28125 -9.734375 L 2.921875 -9.734375 L 2.921875 -5.5 L 8.078125 -5.5 L 8.078125 -9.734375 L 9.71875 -9.734375 Z M 9.71875 0 "/></g></g></g><g fill="#272727" fill-opacity="1"><g transform="translate(212.358443, 243.746313)"><g><path d="M 8.234375 -8.265625 L 2.921875 -8.265625 L 2.921875 -5.625 L 7.671875 -5.625 L 7.671875 -4.15625 L 2.921875 -4.15625 L 2.921875 -1.46875 L 8.40625 -1.46875 L 8.40625 0 L 1.28125 0 L 1.28125 -9.734375 L 8.234375 -9.734375 Z M 8.234375 -8.265625 "/></g></g></g><g fill="#272727" fill-opacity="1"><g transform="translate(223.678155, 243.746313)"><g><path d="M 7.453125 0 L 5.671875 -2.953125 C 5.578125 -2.941406 5.429688 -2.9375 5.234375 -2.9375 L 2.921875 -2.9375 L 2.921875 0 L 1.28125 0 L 1.28125 -9.734375 L 5.234375 -9.734375 C 6.472656 -9.734375 7.4375 -9.441406 8.125 -8.859375 C 8.8125 -8.285156 9.15625 -7.46875 9.15625 -6.40625 C 9.15625 -5.632812 8.976562 -4.976562 8.625 -4.4375 C 8.28125 -3.894531 7.785156 -3.5 7.140625 -3.25 L 9.3125 0 Z M 2.921875 -4.40625 L 5.234375 -4.40625 C 6.804688 -4.40625 7.59375 -5.0625 7.59375 -6.375 C 7.59375 -7.632812 6.804688 -8.265625 5.234375 -8.265625 L 2.921875 -8.265625 Z M 2.921875 -4.40625 "/></g></g></g><g clip-path="url(#id1)"><path fill="#80cc28" d="M 222.464844 138.84375 C 222.464844 138.84375 222.398438 138.929688 222.261719 139.097656 C 222.109375 139.277344 221.882812 139.546875 221.585938 139.898438 C 220.980469 140.609375 220.0625 141.660156 218.863281 142.972656 C 217.664062 144.289062 216.179688 145.863281 214.4375 147.625 C 212.691406 149.378906 210.683594 151.324219 208.4375 153.351562 C 206.191406 155.382812 203.699219 157.492188 200.992188 159.582031 C 198.285156 161.671875 195.355469 163.726562 192.230469 165.601562 C 189.105469 167.476562 185.78125 169.152344 182.316406 170.398438 C 178.855469 171.640625 175.242188 172.441406 171.667969 172.4375 C 169.878906 172.429688 168.105469 172.222656 166.386719 171.789062 C 164.664062 171.355469 162.996094 170.691406 161.421875 169.804688 C 161.222656 169.695312 161.023438 169.59375 160.832031 169.472656 L 160.257812 169.105469 L 160.0625 168.980469 C 159.300781 169.777344 158.550781 170.578125 157.824219 171.375 C 157.339844 171.90625 156.902344 172.390625 156.519531 172.824219 L 156.925781 173.183594 L 156.996094 173.25 L 157.117188 173.34375 L 157.28125 173.476562 L 158.265625 174.261719 C 158.488281 174.433594 158.722656 174.582031 158.949219 174.746094 C 160.777344 176.039062 162.777344 177.101562 164.871094 177.875 C 165.609375 178.152344 166.359375 178.390625 167.121094 178.597656 C 164.625 180.269531 162.976562 183.171875 162.976562 186.472656 C 162.976562 191.65625 167.046875 195.859375 172.0625 195.859375 C 177.082031 195.859375 181.148438 191.65625 181.148438 186.472656 C 181.148438 183.671875 179.957031 181.15625 178.074219 179.4375 C 180.144531 179.246094 182.1875 178.886719 184.164062 178.410156 C 188.277344 177.414062 192.167969 175.9375 195.796875 174.25 C 199.429688 172.558594 202.816406 170.664062 205.9375 168.730469 C 209.0625 166.789062 211.933594 164.816406 214.527344 162.90625 C 217.121094 161 219.441406 159.160156 221.472656 157.484375 C 223.5 155.808594 225.238281 154.292969 226.65625 153.019531 C 228.074219 151.742188 229.175781 150.703125 229.929688 149.976562 C 230.308594 149.605469 230.601562 149.320312 230.796875 149.128906 C 231.007812 148.914062 231.117188 148.804688 231.117188 148.804688 L 222.464844 138.84375 " fill-opacity="1" fill-rule="nonzero"/></g><path fill="#80cc28" d="M 152.511719 154.050781 C 152.65625 153.929688 152.800781 153.8125 152.945312 153.695312 C 153.039062 153.0625 153.160156 152.441406 153.3125 151.828125 C 153.738281 150.121094 154.378906 148.503906 155.15625 147.03125 C 155.929688 145.554688 156.835938 144.214844 157.800781 143.015625 C 158.765625 141.8125 159.796875 140.765625 160.835938 139.839844 C 161.878906 138.921875 162.929688 138.132812 163.960938 137.464844 C 166.019531 136.121094 167.980469 135.261719 169.625 134.679688 C 171.277344 134.117188 172.621094 133.824219 173.539062 133.660156 C 174 133.574219 174.351562 133.527344 174.59375 133.496094 C 174.832031 133.460938 174.957031 133.445312 174.957031 133.445312 C 174.957031 133.445312 174.832031 133.449219 174.589844 133.453125 C 174.347656 133.460938 173.992188 133.46875 173.523438 133.503906 C 172.589844 133.570312 171.21875 133.710938 169.496094 134.101562 C 167.777344 134.503906 165.699219 135.160156 163.441406 136.316406 C 162.3125 136.894531 161.144531 137.59375 159.960938 138.441406 C 158.785156 139.296875 157.589844 140.289062 156.441406 141.46875 C 155.292969 142.644531 154.175781 143.992188 153.171875 145.542969 C 152.164062 147.089844 151.273438 148.839844 150.597656 150.789062 C 149.976562 152.585938 149.554688 154.566406 149.445312 156.648438 C 150.449219 155.777344 151.472656 154.910156 152.511719 154.050781 " fill-opacity="1" fill-rule="nonzero"/><g clip-path="url(#id2)"><path fill="#ff66c4" d="M 208.851562 141.25 C 210.574219 141.683594 212.242188 142.347656 213.816406 143.230469 C 214.011719 143.34375 214.214844 143.445312 214.40625 143.566406 L 214.980469 143.933594 L 215.175781 144.058594 C 215.9375 143.257812 216.683594 142.457031 217.414062 141.664062 C 217.898438 141.128906 218.335938 140.644531 218.71875 140.210938 L 218.3125 139.851562 L 218.242188 139.789062 L 218.121094 139.691406 L 217.957031 139.558594 L 217.628906 139.300781 L 216.972656 138.777344 C 216.75 138.605469 216.515625 138.453125 216.289062 138.289062 C 214.460938 136.996094 212.460938 135.9375 210.367188 135.160156 C 209.628906 134.886719 208.875 134.644531 208.117188 134.441406 C 210.609375 132.765625 212.261719 129.863281 212.261719 126.566406 C 212.261719 121.378906 208.191406 117.175781 203.175781 117.175781 C 198.15625 117.175781 194.089844 121.378906 194.089844 126.566406 C 194.089844 129.367188 195.277344 131.878906 197.164062 133.597656 C 195.089844 133.792969 193.050781 134.152344 191.074219 134.628906 C 186.960938 135.621094 183.070312 137.097656 179.441406 138.789062 C 175.808594 140.480469 172.421875 142.371094 169.296875 144.308594 C 166.175781 146.246094 163.304688 148.222656 160.710938 150.132812 C 158.117188 152.035156 155.796875 153.875 153.765625 155.550781 C 151.738281 157.226562 150 158.742188 148.582031 160.019531 C 147.164062 161.296875 146.0625 162.332031 145.308594 163.058594 C 144.929688 163.433594 144.636719 163.71875 144.441406 163.910156 C 144.226562 164.121094 144.121094 164.230469 144.121094 164.230469 L 152.773438 174.191406 C 152.773438 174.191406 152.839844 174.105469 152.976562 173.941406 C 153.128906 173.757812 153.355469 173.488281 153.652344 173.136719 C 154.257812 172.425781 155.175781 171.378906 156.375 170.0625 C 157.574219 168.75 159.058594 167.171875 160.800781 165.414062 C 162.546875 163.65625 164.554688 161.714844 166.800781 159.6875 C 169.046875 157.65625 171.539062 155.546875 174.246094 153.453125 C 176.953125 151.367188 179.882812 149.308594 183.007812 147.433594 C 186.132812 145.558594 189.457031 143.882812 192.921875 142.636719 C 196.382812 141.398438 199.996094 140.597656 203.570312 140.601562 C 205.359375 140.605469 207.128906 140.8125 208.851562 141.25 " fill-opacity="1" fill-rule="nonzero"/></g><path fill="#ff66c4" d="M 222.726562 158.988281 C 222.582031 159.105469 222.4375 159.222656 222.289062 159.34375 C 222.199219 159.972656 222.078125 160.597656 221.925781 161.210938 C 221.5 162.914062 220.859375 164.53125 220.082031 166.003906 C 219.308594 167.484375 218.402344 168.824219 217.4375 170.023438 C 216.472656 171.222656 215.4375 172.273438 214.402344 173.199219 C 213.359375 174.117188 212.308594 174.902344 211.277344 175.574219 C 209.214844 176.917969 207.257812 177.777344 205.613281 178.355469 C 203.960938 178.921875 202.617188 179.210938 201.699219 179.375 C 201.238281 179.464844 200.882812 179.507812 200.644531 179.542969 C 200.40625 179.578125 200.28125 179.59375 200.28125 179.59375 C 200.28125 179.59375 200.40625 179.589844 200.648438 179.582031 C 200.890625 179.574219 201.246094 179.570312 201.714844 179.53125 C 202.648438 179.46875 204.019531 179.328125 205.742188 178.9375 C 207.460938 178.53125 209.539062 177.875 211.796875 176.71875 C 212.925781 176.144531 214.09375 175.441406 215.277344 174.59375 C 216.453125 173.738281 217.648438 172.75 218.796875 171.570312 C 219.945312 170.394531 221.0625 169.042969 222.066406 167.492188 C 223.074219 165.949219 223.964844 164.195312 224.636719 162.246094 C 225.261719 160.449219 225.683594 158.472656 225.792969 156.386719 C 224.785156 157.261719 223.761719 158.128906 222.726562 158.988281 " fill-opacity="1" fill-rule="nonzero"/></svg>