<svg xmlns="http://www.w3.org/2000/svg" xmlns:xlink="http://www.w3.org/1999/xlink" width="500" zoomAndPan="magnify" viewBox="0 0 375 374.999991" height="500" preserveAspectRatio="xMidYMid meet" version="1.0"><defs><g/><clipPath id="id1"><path d="M 131.386719 107.105469 L 243.886719 107.105469 L 243.886719 219.605469 L 131.386719 219.605469 Z M 131.386719 107.105469 " clip-rule="nonzero"/></clipPath></defs><rect x="-37.5" width="450" fill="#ffffff" y="-37.499999" height="449.999989" fill-opacity="1"/><rect x="-37.5" width="450" fill="#ffffff" y="-37.499999" height="449.999989" fill-opacity="1"/><g clip-path="url(#id1)"><path fill="#7ed957" d="M 140.371094 154.367188 C 145.332031 154.367188 149.355469 158.390625 149.355469 163.355469 C 149.355469 168.316406 145.332031 172.339844 140.371094 172.339844 C 135.410156 172.339844 131.386719 168.316406 131.386719 163.355469 C 131.386719 158.390625 135.410156 154.367188 140.371094 154.367188 Z M 234.898438 154.367188 C 239.863281 154.367188 243.886719 158.390625 243.886719 163.355469 C 243.886719 168.316406 239.863281 172.339844 234.898438 172.339844 C 229.9375 172.339844 225.914062 168.316406 225.914062 163.355469 C 225.914062 158.390625 229.9375 154.367188 234.898438 154.367188 Z M 178.648438 210.617188 C 178.648438 205.65625 182.671875 201.632812 187.636719 201.632812 C 192.597656 201.632812 196.621094 205.65625 196.621094 210.617188 C 196.621094 215.582031 192.597656 219.605469 187.636719 219.605469 C 182.671875 219.605469 178.648438 215.582031 178.648438 210.617188 Z M 178.648438 116.089844 C 178.648438 111.128906 182.671875 107.105469 187.636719 107.105469 C 192.597656 107.105469 196.621094 111.128906 196.621094 116.089844 C 196.621094 121.054688 192.597656 125.074219 187.636719 125.074219 C 182.671875 125.074219 178.648438 121.054688 178.648438 116.089844 Z M 200.480469 167.164062 C 200.605469 165.910156 200.675781 164.640625 200.675781 163.355469 C 200.675781 162.066406 200.605469 160.796875 200.480469 159.542969 C 202.777344 160.5625 204.933594 161.84375 206.902344 163.355469 C 204.933594 164.863281 202.777344 166.148438 200.480469 167.164062 Z M 187.636719 182.625 C 186.125 180.652344 184.84375 178.496094 183.824219 176.199219 C 185.078125 176.324219 186.347656 176.394531 187.636719 176.394531 C 188.921875 176.394531 190.191406 176.324219 191.445312 176.199219 C 190.425781 178.496094 189.144531 180.652344 187.636719 182.625 Z M 168.367188 163.355469 C 170.339844 161.84375 172.492188 160.5625 174.789062 159.542969 C 174.664062 160.796875 174.59375 162.066406 174.59375 163.355469 C 174.59375 164.640625 174.664062 165.910156 174.789062 167.164062 C 172.492188 166.148438 170.339844 164.863281 168.367188 163.355469 Z M 194.164062 163.355469 C 194.164062 165.394531 193.964844 167.382812 193.597656 169.316406 C 191.664062 169.683594 189.671875 169.882812 187.636719 169.882812 C 185.597656 169.882812 183.605469 169.683594 181.671875 169.316406 C 181.304688 167.382812 181.105469 165.394531 181.105469 163.355469 C 181.105469 161.316406 181.304688 159.324219 181.671875 157.394531 C 183.605469 157.023438 185.597656 156.824219 187.636719 156.824219 C 189.671875 156.824219 191.664062 157.023438 193.597656 157.394531 C 193.964844 159.324219 194.164062 161.316406 194.164062 163.355469 Z M 187.636719 144.085938 C 189.144531 146.058594 190.425781 148.210938 191.445312 150.507812 C 190.191406 150.382812 188.921875 150.3125 187.636719 150.3125 C 186.347656 150.3125 185.078125 150.382812 183.824219 150.507812 C 184.84375 148.210938 186.125 146.058594 187.636719 144.085938 Z M 219.402344 138.117188 C 219.402344 146.027344 216.492188 153.273438 211.691406 158.839844 C 207.960938 155.820312 203.652344 153.484375 198.960938 152.027344 C 197.503906 147.335938 195.171875 143.027344 192.148438 139.296875 C 197.714844 134.496094 204.960938 131.585938 212.871094 131.585938 L 212.871094 125.074219 C 203.210938 125.074219 194.378906 128.675781 187.636719 134.597656 C 180.890625 128.675781 172.058594 125.074219 162.398438 125.074219 L 162.398438 131.585938 C 170.308594 131.585938 177.554688 134.496094 183.121094 139.296875 C 180.097656 143.027344 177.765625 147.335938 176.308594 152.027344 C 171.617188 153.484375 167.308594 155.820312 163.578125 158.839844 C 158.777344 153.273438 155.867188 146.027344 155.867188 138.117188 L 149.355469 138.117188 C 149.355469 147.777344 152.957031 156.613281 158.878906 163.355469 C 152.957031 170.097656 149.355469 178.929688 149.355469 188.589844 L 155.867188 188.589844 C 155.867188 180.679688 158.777344 173.433594 163.578125 167.867188 C 167.308594 170.890625 171.617188 173.226562 176.308594 174.683594 C 177.765625 179.371094 180.097656 183.679688 183.121094 187.410156 C 177.554688 192.210938 170.308594 195.121094 162.398438 195.121094 L 162.398438 201.632812 C 172.058594 201.632812 180.890625 198.035156 187.636719 192.109375 C 194.378906 198.035156 203.210938 201.632812 212.871094 201.632812 L 212.871094 195.121094 C 204.960938 195.121094 197.714844 192.210938 192.148438 187.410156 C 195.171875 183.679688 197.503906 179.371094 198.960938 174.683594 C 203.652344 173.226562 207.960938 170.890625 211.691406 167.867188 C 216.492188 173.433594 219.402344 180.679688 219.402344 188.589844 L 225.914062 188.589844 C 225.914062 178.929688 222.316406 170.097656 216.390625 163.355469 C 222.316406 156.613281 225.914062 147.777344 225.914062 138.117188 L 219.402344 138.117188 " fill-opacity="1" fill-rule="nonzero"/></g><g fill="#000000" fill-opacity="1"><g transform="translate(106.084044, 250.776898)"><g><path d="M 16.078125 0 L 13.359375 0 L 13.359375 -6.671875 L 4.828125 -6.671875 L 4.828125 0 L 2.109375 0 L 2.109375 -16.09375 L 4.828125 -16.09375 L 4.828125 -9.109375 L 13.359375 -9.109375 L 13.359375 -16.09375 L 16.078125 -16.09375 Z M 16.078125 0 "/></g></g></g><g fill="#000000" fill-opacity="1"><g transform="translate(124.270913, 250.776898)"><g><path d="M 15.796875 -16.09375 L 15.796875 -6.671875 C 15.796875 -4.566406 15.175781 -2.910156 13.9375 -1.703125 C 12.695312 -0.492188 10.988281 0.109375 8.8125 0.109375 C 6.632812 0.109375 4.921875 -0.492188 3.671875 -1.703125 C 2.421875 -2.910156 1.796875 -4.566406 1.796875 -6.671875 L 1.796875 -16.09375 L 4.515625 -16.09375 L 4.515625 -6.671875 C 4.515625 -5.316406 4.898438 -4.253906 5.671875 -3.484375 C 6.441406 -2.710938 7.492188 -2.328125 8.828125 -2.328125 C 10.148438 -2.328125 11.191406 -2.707031 11.953125 -3.46875 C 12.710938 -4.238281 13.09375 -5.304688 13.09375 -6.671875 L 13.09375 -16.09375 Z M 15.796875 -16.09375 "/></g></g></g><g fill="#000000" fill-opacity="1"><g transform="translate(141.836998, 250.776898)"><g><path d="M 19.140625 0 L 16.625 0 L 16.609375 -12.03125 L 11.515625 -1.671875 L 9.75 -1.671875 L 4.671875 -12.03125 L 4.671875 0 L 2.109375 0 L 2.109375 -16.09375 L 5.34375 -16.09375 L 10.65625 -5.40625 L 15.9375 -16.09375 L 19.140625 -16.09375 Z M 19.140625 0 "/></g></g></g><g fill="#000000" fill-opacity="1"><g transform="translate(163.104835, 250.776898)"><g><path d="M 12.515625 -3.640625 L 4.390625 -3.640625 L 2.859375 0 L 0.015625 0 L 7.125 -16.09375 L 9.90625 -16.09375 L 16.953125 0 L 14.046875 0 Z M 11.484375 -6.046875 L 8.4375 -13.203125 L 5.40625 -6.046875 Z M 11.484375 -6.046875 "/></g></g></g><g fill="#000000" fill-opacity="1"><g transform="translate(180.073114, 250.776898)"><g><path d="M 16.078125 0 L 13.40625 0 L 4.828125 -11.546875 L 4.828125 0 L 2.109375 0 L 2.109375 -16.09375 L 4.78125 -16.09375 L 13.40625 -4.53125 L 13.40625 -16.09375 L 16.078125 -16.09375 Z M 16.078125 0 "/></g></g></g><g fill="#000000" fill-opacity="1"><g transform="translate(198.282975, 250.776898)"><g/></g></g><g fill="#000000" fill-opacity="1"><g transform="translate(204.214974, 250.776898)"><g><path d="M 9.25 -16.171875 C 10.382812 -16.171875 11.488281 -15.953125 12.5625 -15.515625 C 13.644531 -15.078125 14.578125 -14.46875 15.359375 -13.6875 L 13.78125 -11.703125 C 13.195312 -12.335938 12.503906 -12.835938 11.703125 -13.203125 C 10.910156 -13.566406 10.109375 -13.75 9.296875 -13.75 C 7.679688 -13.75 6.316406 -13.203125 5.203125 -12.109375 C 4.097656 -11.015625 3.546875 -9.675781 3.546875 -8.09375 C 3.546875 -6.5 4.097656 -5.15625 5.203125 -4.0625 C 6.316406 -2.96875 7.679688 -2.421875 9.296875 -2.421875 C 10.960938 -2.421875 12.457031 -3.054688 13.78125 -4.328125 L 15.390625 -2.53125 C 14.554688 -1.71875 13.585938 -1.070312 12.484375 -0.59375 C 11.378906 -0.125 10.269531 0.109375 9.15625 0.109375 C 6.789062 0.109375 4.800781 -0.671875 3.1875 -2.234375 C 1.582031 -3.804688 0.78125 -5.753906 0.78125 -8.078125 C 0.78125 -10.359375 1.597656 -12.273438 3.234375 -13.828125 C 4.867188 -15.390625 6.875 -16.171875 9.25 -16.171875 Z M 9.25 -16.171875 "/></g></g></g><g fill="#000000" fill-opacity="1"><g transform="translate(220.240569, 250.776898)"><g><path d="M 12.515625 -3.640625 L 4.390625 -3.640625 L 2.859375 0 L 0.015625 0 L 7.125 -16.09375 L 9.90625 -16.09375 L 16.953125 0 L 14.046875 0 Z M 11.484375 -6.046875 L 8.4375 -13.203125 L 5.40625 -6.046875 Z M 11.484375 -6.046875 "/></g></g></g><g fill="#000000" fill-opacity="1"><g transform="translate(237.208848, 250.776898)"><g><path d="M 12.328125 0 L 9.390625 -4.875 C 9.234375 -4.863281 8.984375 -4.859375 8.640625 -4.859375 L 4.828125 -4.859375 L 4.828125 0 L 2.109375 0 L 2.109375 -16.09375 L 8.640625 -16.09375 C 10.703125 -16.09375 12.300781 -15.613281 13.4375 -14.65625 C 14.570312 -13.695312 15.140625 -12.347656 15.140625 -10.609375 C 15.140625 -9.316406 14.847656 -8.222656 14.265625 -7.328125 C 13.691406 -6.441406 12.867188 -5.789062 11.796875 -5.375 L 15.40625 0 Z M 4.828125 -7.296875 L 8.640625 -7.296875 C 11.253906 -7.296875 12.5625 -8.375 12.5625 -10.53125 C 12.5625 -12.613281 11.253906 -13.65625 8.640625 -13.65625 L 4.828125 -13.65625 Z M 4.828125 -7.296875 "/></g></g></g><g fill="#000000" fill-opacity="1"><g transform="translate(253.832249, 250.776898)"><g><path d="M 13.609375 -13.65625 L 4.828125 -13.65625 L 4.828125 -9.3125 L 12.703125 -9.3125 L 12.703125 -6.875 L 4.828125 -6.875 L 4.828125 -2.4375 L 13.890625 -2.4375 L 13.890625 0 L 2.109375 0 L 2.109375 -16.09375 L 13.609375 -16.09375 Z M 13.609375 -13.65625 "/></g></g></g><g fill="#000000" fill-opacity="1"><g transform="translate(128.559566, 274.869124)"><g><path d="M 9.53125 -10.09375 L 3.5625 -10.09375 L 3.5625 -6.65625 L 8.96875 -6.65625 L 8.96875 -4.875 L 3.5625 -4.875 L 3.5625 0 L 1.5625 0 L 1.5625 -11.90625 L 9.546875 -11.90625 Z M 9.53125 -10.09375 "/></g></g></g><g fill="#000000" fill-opacity="1"><g transform="translate(138.33005, 274.869124)"><g><path d="M 2.390625 -10.21875 C 3.609375 -11.375 5.101562 -11.953125 6.875 -11.953125 C 8.65625 -11.953125 10.148438 -11.375 11.359375 -10.21875 C 12.578125 -9.070312 13.1875 -7.648438 13.1875 -5.953125 C 13.1875 -4.253906 12.578125 -2.820312 11.359375 -1.65625 C 10.148438 -0.5 8.65625 0.078125 6.875 0.078125 C 5.101562 0.078125 3.609375 -0.5 2.390625 -1.65625 C 1.179688 -2.820312 0.578125 -4.253906 0.578125 -5.953125 C 0.578125 -7.648438 1.179688 -9.070312 2.390625 -10.21875 Z M 6.90625 -10.15625 C 5.726562 -10.15625 4.71875 -9.75 3.875 -8.9375 C 3.039062 -8.125 2.625 -7.128906 2.625 -5.953125 C 2.625 -4.773438 3.046875 -3.773438 3.890625 -2.953125 C 4.734375 -2.128906 5.738281 -1.71875 6.90625 -1.71875 C 8.070312 -1.71875 9.066406 -2.128906 9.890625 -2.953125 C 10.722656 -3.773438 11.140625 -4.773438 11.140625 -5.953125 C 11.140625 -7.128906 10.722656 -8.125 9.890625 -8.9375 C 9.066406 -9.75 8.070312 -10.15625 6.90625 -10.15625 Z M 6.90625 -10.15625 "/></g></g></g><g fill="#000000" fill-opacity="1"><g transform="translate(152.093687, 274.869124)"><g><path d="M 11.671875 -11.90625 L 11.671875 -4.9375 C 11.671875 -3.375 11.210938 -2.144531 10.296875 -1.25 C 9.378906 -0.363281 8.113281 0.078125 6.5 0.078125 C 4.894531 0.078125 3.628906 -0.363281 2.703125 -1.25 C 1.785156 -2.144531 1.328125 -3.375 1.328125 -4.9375 L 1.328125 -11.90625 L 3.328125 -11.90625 L 3.328125 -4.9375 C 3.328125 -3.9375 3.613281 -3.148438 4.1875 -2.578125 C 4.757812 -2.003906 5.539062 -1.71875 6.53125 -1.71875 C 7.5 -1.71875 8.265625 -2 8.828125 -2.5625 C 9.390625 -3.132812 9.671875 -3.925781 9.671875 -4.9375 L 9.671875 -11.90625 Z M 11.671875 -11.90625 "/></g></g></g><g fill="#000000" fill-opacity="1"><g transform="translate(165.075692, 274.869124)"><g><path d="M 11.890625 0 L 9.90625 0 L 3.5625 -8.53125 L 3.5625 0 L 1.5625 0 L 1.5625 -11.90625 L 3.53125 -11.90625 L 9.90625 -3.34375 L 9.90625 -11.90625 L 11.890625 -11.90625 Z M 11.890625 0 "/></g></g></g><g fill="#000000" fill-opacity="1"><g transform="translate(178.533474, 274.869124)"><g><path d="M 1.5625 -11.90625 L 6.4375 -11.90625 C 8.21875 -11.90625 9.6875 -11.34375 10.84375 -10.21875 C 12.007812 -9.09375 12.59375 -7.664062 12.59375 -5.9375 C 12.59375 -4.21875 12.007812 -2.796875 10.84375 -1.671875 C 9.675781 -0.554688 8.191406 0 6.390625 0 L 1.5625 0 Z M 3.5625 -10.09375 L 3.5625 -1.796875 L 6.5 -1.796875 C 7.664062 -1.796875 8.632812 -2.179688 9.40625 -2.953125 C 10.1875 -3.734375 10.578125 -4.722656 10.578125 -5.921875 C 10.578125 -7.128906 10.175781 -8.125 9.375 -8.90625 C 8.570312 -9.695312 7.582031 -10.09375 6.40625 -10.09375 Z M 3.5625 -10.09375 "/></g></g></g><g fill="#000000" fill-opacity="1"><g transform="translate(191.702395, 274.869124)"><g><path d="M 9.25 -2.6875 L 3.25 -2.6875 L 2.109375 0 L 0.015625 0 L 5.265625 -11.90625 L 7.328125 -11.90625 L 12.53125 0 L 10.390625 0 Z M 8.484375 -4.46875 L 6.234375 -9.765625 L 4 -4.46875 Z M 8.484375 -4.46875 "/></g></g></g><g fill="#000000" fill-opacity="1"><g transform="translate(204.242601, 274.869124)"><g><path d="M 9.6875 -10.09375 L 5.921875 -10.09375 L 5.921875 0 L 3.90625 0 L 3.90625 -10.09375 L 0.15625 -10.09375 L 0.15625 -11.90625 L 9.6875 -11.90625 Z M 9.6875 -10.09375 "/></g></g></g><g fill="#000000" fill-opacity="1"><g transform="translate(214.081052, 274.869124)"><g><path d="M 3.5625 0 L 1.5625 0 L 1.5625 -11.90625 L 3.5625 -11.90625 Z M 3.5625 0 "/></g></g></g><g fill="#000000" fill-opacity="1"><g transform="translate(219.212685, 274.869124)"><g><path d="M 2.390625 -10.21875 C 3.609375 -11.375 5.101562 -11.953125 6.875 -11.953125 C 8.65625 -11.953125 10.148438 -11.375 11.359375 -10.21875 C 12.578125 -9.070312 13.1875 -7.648438 13.1875 -5.953125 C 13.1875 -4.253906 12.578125 -2.820312 11.359375 -1.65625 C 10.148438 -0.5 8.65625 0.078125 6.875 0.078125 C 5.101562 0.078125 3.609375 -0.5 2.390625 -1.65625 C 1.179688 -2.820312 0.578125 -4.253906 0.578125 -5.953125 C 0.578125 -7.648438 1.179688 -9.070312 2.390625 -10.21875 Z M 6.90625 -10.15625 C 5.726562 -10.15625 4.71875 -9.75 3.875 -8.9375 C 3.039062 -8.125 2.625 -7.128906 2.625 -5.953125 C 2.625 -4.773438 3.046875 -3.773438 3.890625 -2.953125 C 4.734375 -2.128906 5.738281 -1.71875 6.90625 -1.71875 C 8.070312 -1.71875 9.066406 -2.128906 9.890625 -2.953125 C 10.722656 -3.773438 11.140625 -4.773438 11.140625 -5.953125 C 11.140625 -7.128906 10.722656 -8.125 9.890625 -8.9375 C 9.066406 -9.75 8.070312 -10.15625 6.90625 -10.15625 Z M 6.90625 -10.15625 "/></g></g></g><g fill="#000000" fill-opacity="1"><g transform="translate(232.976322, 274.869124)"><g><path d="M 11.890625 0 L 9.90625 0 L 3.5625 -8.53125 L 3.5625 0 L 1.5625 0 L 1.5625 -11.90625 L 3.53125 -11.90625 L 9.90625 -3.34375 L 9.90625 -11.90625 L 11.890625 -11.90625 Z M 11.890625 0 "/></g></g></g></svg>