<svg xmlns="http://www.w3.org/2000/svg" xmlns:xlink="http://www.w3.org/1999/xlink" width="500" zoomAndPan="magnify" viewBox="0 0 375 374.999991" height="500" preserveAspectRatio="xMidYMid meet" version="1.0"><defs><g/><clipPath id="id1"><path d="M 134.1875 93.796875 L 240.6875 93.796875 L 240.6875 200.296875 L 134.1875 200.296875 Z M 134.1875 93.796875 " clip-rule="nonzero"/></clipPath></defs><rect x="-37.5" width="450" fill="#ffffff" y="-37.499999" height="449.999989" fill-opacity="1"/><rect x="-37.5" width="450" fill="#ffffff" y="-37.499999" height="449.999989" fill-opacity="1"/><g clip-path="url(#id1)"><path fill="#ff5757" d="M 172.488281 140.316406 L 168.421875 138.007812 L 161.339844 133.898438 L 161.339844 122.789062 L 157.308594 120.441406 L 156.996094 120.285156 L 156.996094 120.246094 L 147.878906 115.003906 L 143.8125 112.65625 L 143.8125 128.421875 L 147.878906 130.769531 L 157.308594 136.207031 L 157.308594 157.882812 L 147.878906 163.324219 L 143.8125 165.671875 L 143.8125 181.4375 L 147.878906 179.128906 L 156.996094 173.847656 L 157.308594 173.652344 L 161.339844 171.304688 L 161.339844 160.191406 L 168.421875 156.125 L 172.488281 153.777344 Z M 199.761719 191.375 L 198.234375 188.675781 L 194.597656 182.453125 L 180.277344 182.453125 L 176.675781 188.675781 L 175.113281 191.375 L 176.675781 194.035156 L 180.277344 200.296875 L 194.597656 200.296875 L 198.234375 194.035156 Z M 195.339844 191.375 L 192.40625 186.25 L 182.46875 186.25 L 179.53125 191.375 L 182.46875 196.460938 L 192.40625 196.460938 Z M 231.765625 134.722656 L 229.066406 136.285156 L 222.84375 139.886719 L 222.84375 154.207031 L 229.066406 157.84375 L 231.765625 159.371094 L 234.425781 157.84375 L 240.6875 154.207031 L 240.6875 139.886719 L 234.425781 136.285156 Z M 231.765625 139.144531 L 226.640625 142.078125 L 226.640625 152.015625 L 231.765625 154.949219 L 236.851562 152.015625 L 236.851562 142.078125 Z M 175.113281 102.71875 L 176.675781 105.417969 L 180.277344 111.636719 L 194.597656 111.636719 L 198.234375 105.417969 L 199.761719 102.71875 L 198.234375 100.054688 L 194.597656 93.796875 L 180.277344 93.796875 L 176.675781 100.054688 Z M 179.53125 102.71875 L 182.46875 107.84375 L 192.40625 107.84375 L 195.339844 102.71875 L 192.40625 97.628906 L 182.46875 97.628906 Z M 143.105469 159.371094 L 145.804688 157.84375 L 152.027344 154.207031 L 152.027344 139.886719 L 145.804688 136.285156 L 143.105469 134.722656 L 140.445312 136.285156 L 134.1875 139.886719 L 134.1875 154.207031 L 140.445312 157.84375 Z M 143.105469 154.949219 L 148.230469 152.015625 L 148.230469 142.078125 L 143.105469 139.144531 L 138.019531 142.078125 L 138.019531 152.015625 Z M 187.4375 159.371094 L 190.136719 157.84375 L 196.355469 154.207031 L 196.355469 139.886719 L 190.136719 136.285156 L 187.4375 134.722656 L 184.777344 136.285156 L 178.515625 139.886719 L 178.515625 154.207031 L 184.777344 157.84375 Z M 187.4375 154.949219 L 192.5625 152.015625 L 192.5625 142.078125 L 187.4375 139.144531 L 182.351562 142.078125 L 182.351562 152.015625 Z M 180.707031 162.03125 L 178.398438 166.0625 L 174.289062 173.144531 L 163.179688 173.144531 L 160.832031 177.171875 L 160.675781 177.484375 L 160.636719 177.484375 L 155.390625 186.640625 L 153.042969 190.671875 L 168.8125 190.671875 L 171.160156 186.640625 L 176.597656 177.171875 L 198.273438 177.171875 L 203.710938 186.640625 L 206.058594 190.671875 L 221.828125 190.671875 L 219.519531 186.640625 L 214.238281 177.484375 L 214.042969 177.171875 L 211.695312 173.144531 L 200.582031 173.144531 L 196.511719 166.0625 L 194.164062 162.03125 Z M 195.925781 173.144531 L 178.945312 173.144531 L 183.015625 166.0625 L 191.855469 166.0625 Z M 208.367188 186.640625 L 202.929688 177.171875 L 209.386719 177.171875 L 210.714844 179.480469 L 210.714844 179.519531 L 214.824219 186.640625 Z M 167.835938 177.171875 L 171.941406 177.171875 L 166.503906 186.640625 L 160.046875 186.640625 L 164.15625 179.519531 L 164.15625 179.480469 L 165.488281 177.171875 Z M 202.421875 153.777344 L 206.449219 156.125 L 213.53125 160.191406 L 213.53125 171.304688 L 217.5625 173.652344 L 217.875 173.847656 L 227.03125 179.128906 L 231.0625 181.4375 L 231.0625 165.671875 L 227.03125 163.324219 L 217.5625 157.882812 L 217.5625 136.207031 L 227.03125 130.769531 L 231.0625 128.421875 L 231.0625 112.65625 L 227.03125 115.003906 L 217.875 120.246094 L 217.875 120.285156 L 217.5625 120.441406 L 213.53125 122.789062 L 213.53125 133.898438 L 206.449219 138.007812 L 202.421875 140.316406 Z M 213.53125 138.554688 L 213.53125 155.535156 L 206.449219 151.46875 L 206.449219 142.625 Z M 227.03125 126.113281 L 217.5625 131.550781 L 217.5625 125.097656 L 219.871094 123.765625 L 219.910156 123.765625 L 227.03125 119.660156 Z M 217.5625 166.6875 L 217.5625 162.539062 L 227.03125 167.976562 L 227.03125 174.433594 L 219.910156 170.324219 L 219.871094 170.324219 L 217.5625 168.996094 Z M 194.164062 132.101562 L 196.511719 128.03125 L 200.582031 120.949219 L 211.695312 120.949219 L 214.042969 116.917969 L 214.238281 116.605469 L 219.519531 107.492188 L 221.828125 103.421875 L 206.058594 103.421875 L 203.710938 107.492188 L 198.273438 116.917969 L 176.597656 116.917969 L 171.160156 107.492188 L 168.8125 103.421875 L 153.042969 103.421875 L 155.390625 107.492188 L 160.636719 116.605469 L 160.675781 116.605469 L 160.832031 116.917969 L 163.179688 120.949219 L 174.289062 120.949219 L 178.398438 128.03125 L 180.707031 132.101562 Z M 178.945312 120.949219 L 195.925781 120.949219 L 191.855469 128.03125 L 183.015625 128.03125 Z M 166.503906 107.492188 L 171.941406 116.917969 L 165.488281 116.917969 L 164.15625 114.609375 L 164.15625 114.570312 L 160.046875 107.492188 Z M 207.078125 116.917969 L 202.929688 116.917969 L 208.367188 107.492188 L 214.824219 107.492188 L 210.714844 114.570312 L 210.714844 114.609375 L 209.386719 116.917969 Z M 161.339844 155.535156 L 161.339844 138.554688 L 168.421875 142.625 L 168.421875 151.46875 Z M 147.878906 167.976562 L 157.308594 162.539062 L 157.308594 168.996094 L 155 170.324219 L 154.960938 170.324219 L 147.878906 174.433594 Z M 157.308594 127.445312 L 157.308594 131.550781 L 147.878906 126.113281 L 147.878906 119.660156 L 154.960938 123.765625 L 155 123.765625 L 157.308594 125.097656 Z M 157.308594 127.445312 " fill-opacity="1" fill-rule="evenodd"/></g><g fill="#000000" fill-opacity="1"><g transform="translate(109.495336, 245.830121)"><g><path d="M 17.46875 -6.015625 C 17.46875 -3.921875 16.75 -2.335938 15.3125 -1.265625 C 13.882812 -0.191406 11.835938 0.34375 9.171875 0.34375 C 7.710938 0.34375 6.445312 0.265625 5.375 0.109375 C 4.300781 -0.046875 3.207031 -0.332031 2.09375 -0.75 L 2.09375 -6.15625 C 3.144531 -5.695312 4.296875 -5.316406 5.546875 -5.015625 C 6.796875 -4.710938 7.910156 -4.5625 8.890625 -4.5625 C 10.359375 -4.5625 11.09375 -4.894531 11.09375 -5.5625 C 11.09375 -5.914062 10.882812 -6.226562 10.46875 -6.5 C 10.0625 -6.769531 8.875 -7.296875 6.90625 -8.078125 C 5.101562 -8.816406 3.84375 -9.65625 3.125 -10.59375 C 2.414062 -11.53125 2.0625 -12.722656 2.0625 -14.171875 C 2.0625 -15.984375 2.765625 -17.394531 4.171875 -18.40625 C 5.578125 -19.425781 7.566406 -19.9375 10.140625 -19.9375 C 11.429688 -19.9375 12.644531 -19.796875 13.78125 -19.515625 C 14.914062 -19.234375 16.09375 -18.820312 17.3125 -18.28125 L 15.484375 -13.921875 C 14.578125 -14.328125 13.625 -14.671875 12.625 -14.953125 C 11.625 -15.234375 10.804688 -15.375 10.171875 -15.375 C 9.066406 -15.375 8.515625 -15.101562 8.515625 -14.5625 C 8.515625 -14.226562 8.707031 -13.941406 9.09375 -13.703125 C 9.476562 -13.472656 10.59375 -12.992188 12.4375 -12.265625 C 13.8125 -11.703125 14.832031 -11.148438 15.5 -10.609375 C 16.175781 -10.066406 16.671875 -9.425781 16.984375 -8.6875 C 17.304688 -7.957031 17.46875 -7.066406 17.46875 -6.015625 Z M 17.46875 -6.015625 "/></g></g></g><g fill="#000000" fill-opacity="1"><g transform="translate(132.457005, 245.830121)"><g><path d="M 11.796875 0.34375 C 8.535156 0.34375 6 -0.519531 4.1875 -2.25 C 2.382812 -3.988281 1.484375 -6.460938 1.484375 -9.671875 C 1.484375 -12.972656 2.316406 -15.507812 3.984375 -17.28125 C 5.660156 -19.050781 8.050781 -19.9375 11.15625 -19.9375 C 14.101562 -19.9375 16.378906 -19.164062 17.984375 -17.625 C 19.597656 -16.09375 20.40625 -13.878906 20.40625 -10.984375 L 20.40625 -7.96875 L 8.3125 -7.96875 C 8.363281 -6.875 8.765625 -6.015625 9.515625 -5.390625 C 10.273438 -4.773438 11.304688 -4.46875 12.609375 -4.46875 C 13.796875 -4.46875 14.882812 -4.578125 15.875 -4.796875 C 16.875 -5.023438 17.957031 -5.410156 19.125 -5.953125 L 19.125 -1.09375 C 18.0625 -0.550781 16.960938 -0.175781 15.828125 0.03125 C 14.703125 0.238281 13.359375 0.34375 11.796875 0.34375 Z M 11.390625 -15.34375 C 10.597656 -15.34375 9.929688 -15.09375 9.390625 -14.59375 C 8.859375 -14.09375 8.546875 -13.304688 8.453125 -12.234375 L 14.265625 -12.234375 C 14.242188 -13.171875 13.972656 -13.921875 13.453125 -14.484375 C 12.941406 -15.054688 12.253906 -15.34375 11.390625 -15.34375 Z M 11.390625 -15.34375 "/></g></g></g><g fill="#000000" fill-opacity="1"><g transform="translate(158.428183, 245.830121)"><g><path d="M 14.171875 -19.9375 C 14.753906 -19.9375 15.3125 -19.890625 15.84375 -19.796875 L 16.21875 -19.734375 L 15.625 -13.359375 C 15.0625 -13.492188 14.289062 -13.5625 13.3125 -13.5625 C 11.84375 -13.5625 10.769531 -13.222656 10.09375 -12.546875 C 9.425781 -11.867188 9.09375 -10.898438 9.09375 -9.640625 L 9.09375 0 L 2.328125 0 L 2.328125 -19.59375 L 7.375 -19.59375 L 8.421875 -16.46875 L 8.75 -16.46875 C 9.3125 -17.5 10.097656 -18.332031 11.109375 -18.96875 C 12.117188 -19.613281 13.140625 -19.9375 14.171875 -19.9375 Z M 14.171875 -19.9375 "/></g></g></g><g fill="#000000" fill-opacity="1"><g transform="translate(179.124068, 245.830121)"><g><path d="M 7.46875 0 L 0 -19.59375 L 7.0625 -19.59375 L 10.375 -8.015625 C 10.382812 -7.953125 10.40625 -7.847656 10.4375 -7.703125 C 10.476562 -7.566406 10.515625 -7.40625 10.546875 -7.21875 C 10.585938 -7.03125 10.617188 -6.828125 10.640625 -6.609375 C 10.671875 -6.398438 10.6875 -6.203125 10.6875 -6.015625 L 10.8125 -6.015625 C 10.8125 -6.617188 10.914062 -7.269531 11.125 -7.96875 L 14.59375 -19.59375 L 21.640625 -19.59375 L 14.171875 0 Z M 7.46875 0 "/></g></g></g><g fill="#000000" fill-opacity="1"><g transform="translate(204.835808, 245.830121)"><g><path d="M 9.125 0 L 2.375 0 L 2.375 -19.59375 L 9.125 -19.59375 Z M 2.203125 -24.46875 C 2.203125 -25.488281 2.484375 -26.242188 3.046875 -26.734375 C 3.609375 -27.234375 4.519531 -27.484375 5.78125 -27.484375 C 7.03125 -27.484375 7.941406 -27.226562 8.515625 -26.71875 C 9.097656 -26.21875 9.390625 -25.46875 9.390625 -24.46875 C 9.390625 -22.488281 8.1875 -21.5 5.78125 -21.5 C 3.394531 -21.5 2.203125 -22.488281 2.203125 -24.46875 Z M 2.203125 -24.46875 "/></g></g></g><g fill="#000000" fill-opacity="1"><g transform="translate(220.42937, 245.830121)"><g><path d="M 11.265625 0.34375 C 8.054688 0.34375 5.625 -0.519531 3.96875 -2.25 C 2.3125 -3.976562 1.484375 -6.460938 1.484375 -9.703125 C 1.484375 -12.953125 2.375 -15.46875 4.15625 -17.25 C 5.945312 -19.039062 8.492188 -19.9375 11.796875 -19.9375 C 14.066406 -19.9375 16.207031 -19.441406 18.21875 -18.453125 L 16.21875 -13.453125 C 15.40625 -13.816406 14.648438 -14.101562 13.953125 -14.3125 C 13.265625 -14.519531 12.546875 -14.625 11.796875 -14.625 C 10.703125 -14.625 9.851562 -14.195312 9.25 -13.34375 C 8.65625 -12.5 8.359375 -11.296875 8.359375 -9.734375 C 8.359375 -6.597656 9.515625 -5.03125 11.828125 -5.03125 C 13.816406 -5.03125 15.71875 -5.609375 17.53125 -6.765625 L 17.53125 -1.390625 C 15.789062 -0.234375 13.703125 0.34375 11.265625 0.34375 Z M 11.265625 0.34375 "/></g></g></g><g fill="#000000" fill-opacity="1"><g transform="translate(243.598593, 245.830121)"><g><path d="M 11.796875 0.34375 C 8.535156 0.34375 6 -0.519531 4.1875 -2.25 C 2.382812 -3.988281 1.484375 -6.460938 1.484375 -9.671875 C 1.484375 -12.972656 2.316406 -15.507812 3.984375 -17.28125 C 5.660156 -19.050781 8.050781 -19.9375 11.15625 -19.9375 C 14.101562 -19.9375 16.378906 -19.164062 17.984375 -17.625 C 19.597656 -16.09375 20.40625 -13.878906 20.40625 -10.984375 L 20.40625 -7.96875 L 8.3125 -7.96875 C 8.363281 -6.875 8.765625 -6.015625 9.515625 -5.390625 C 10.273438 -4.773438 11.304688 -4.46875 12.609375 -4.46875 C 13.796875 -4.46875 14.882812 -4.578125 15.875 -4.796875 C 16.875 -5.023438 17.957031 -5.410156 19.125 -5.953125 L 19.125 -1.09375 C 18.0625 -0.550781 16.960938 -0.175781 15.828125 0.03125 C 14.703125 0.238281 13.359375 0.34375 11.796875 0.34375 Z M 11.390625 -15.34375 C 10.597656 -15.34375 9.929688 -15.09375 9.390625 -14.59375 C 8.859375 -14.09375 8.546875 -13.304688 8.453125 -12.234375 L 14.265625 -12.234375 C 14.242188 -13.171875 13.972656 -13.921875 13.453125 -14.484375 C 12.941406 -15.054688 12.253906 -15.34375 11.390625 -15.34375 Z M 11.390625 -15.34375 "/></g></g></g><g fill="#000000" fill-opacity="1"><g transform="translate(133.383248, 276.2622)"><g><path d="M 6.15625 0.203125 C 4.5625 0.203125 3.328125 -0.285156 2.453125 -1.265625 C 1.585938 -2.242188 1.15625 -3.628906 1.15625 -5.421875 C 1.15625 -7.253906 1.597656 -8.671875 2.484375 -9.671875 C 3.367188 -10.671875 4.628906 -11.171875 6.265625 -11.171875 C 6.785156 -11.171875 7.3125 -11.113281 7.84375 -11 C 8.375 -10.894531 8.785156 -10.765625 9.078125 -10.609375 L 8.578125 -9.203125 C 8.210938 -9.347656 7.8125 -9.46875 7.375 -9.5625 C 6.9375 -9.65625 6.550781 -9.703125 6.21875 -9.703125 C 3.988281 -9.703125 2.875 -8.28125 2.875 -5.4375 C 2.875 -4.09375 3.144531 -3.054688 3.6875 -2.328125 C 4.238281 -1.609375 5.046875 -1.25 6.109375 -1.25 C 7.023438 -1.25 7.960938 -1.445312 8.921875 -1.84375 L 8.921875 -0.375 C 8.191406 0.0078125 7.269531 0.203125 6.15625 0.203125 Z M 6.15625 0.203125 "/></g></g></g><g fill="#000000" fill-opacity="1"><g transform="translate(143.146681, 276.2622)"><g><path d="M 11.234375 -5.5 C 11.234375 -3.707031 10.78125 -2.304688 9.875 -1.296875 C 8.976562 -0.296875 7.738281 0.203125 6.15625 0.203125 C 5.164062 0.203125 4.289062 -0.0234375 3.53125 -0.484375 C 2.769531 -0.953125 2.179688 -1.613281 1.765625 -2.46875 C 1.359375 -3.332031 1.15625 -4.34375 1.15625 -5.5 C 1.15625 -7.289062 1.601562 -8.679688 2.5 -9.671875 C 3.394531 -10.671875 4.632812 -11.171875 6.21875 -11.171875 C 7.757812 -11.171875 8.976562 -10.660156 9.875 -9.640625 C 10.78125 -8.617188 11.234375 -7.238281 11.234375 -5.5 Z M 2.875 -5.5 C 2.875 -4.09375 3.15625 -3.019531 3.71875 -2.28125 C 4.28125 -1.550781 5.101562 -1.1875 6.1875 -1.1875 C 7.28125 -1.1875 8.109375 -1.550781 8.671875 -2.28125 C 9.234375 -3.019531 9.515625 -4.09375 9.515625 -5.5 C 9.515625 -6.894531 9.234375 -7.953125 8.671875 -8.671875 C 8.109375 -9.398438 7.273438 -9.765625 6.171875 -9.765625 C 5.078125 -9.765625 4.253906 -9.40625 3.703125 -8.6875 C 3.148438 -7.976562 2.875 -6.914062 2.875 -5.5 Z M 2.875 -5.5 "/></g></g></g><g fill="#000000" fill-opacity="1"><g transform="translate(155.533723, 276.2622)"><g><path d="M 15.75 0 L 15.75 -7.140625 C 15.75 -8.015625 15.5625 -8.671875 15.1875 -9.109375 C 14.820312 -9.546875 14.242188 -9.765625 13.453125 -9.765625 C 12.421875 -9.765625 11.65625 -9.46875 11.15625 -8.875 C 10.664062 -8.28125 10.421875 -7.363281 10.421875 -6.125 L 10.421875 0 L 8.75 0 L 8.75 -7.140625 C 8.75 -8.015625 8.5625 -8.671875 8.1875 -9.109375 C 7.820312 -9.546875 7.238281 -9.765625 6.4375 -9.765625 C 5.394531 -9.765625 4.628906 -9.453125 4.140625 -8.828125 C 3.660156 -8.203125 3.421875 -7.179688 3.421875 -5.765625 L 3.421875 0 L 1.765625 0 L 1.765625 -10.984375 L 3.109375 -10.984375 L 3.390625 -9.46875 L 3.46875 -9.46875 C 3.78125 -10.007812 4.222656 -10.425781 4.796875 -10.71875 C 5.367188 -11.019531 6.007812 -11.171875 6.71875 -11.171875 C 8.425781 -11.171875 9.546875 -10.550781 10.078125 -9.3125 L 10.15625 -9.3125 C 10.488281 -9.882812 10.960938 -10.335938 11.578125 -10.671875 C 12.203125 -11.003906 12.910156 -11.171875 13.703125 -11.171875 C 14.941406 -11.171875 15.867188 -10.851562 16.484375 -10.21875 C 17.109375 -9.582031 17.421875 -8.5625 17.421875 -7.15625 L 17.421875 0 Z M 15.75 0 "/></g></g></g><g fill="#000000" fill-opacity="1"><g transform="translate(174.609965, 276.2622)"><g><path d="M 15.75 0 L 15.75 -7.140625 C 15.75 -8.015625 15.5625 -8.671875 15.1875 -9.109375 C 14.820312 -9.546875 14.242188 -9.765625 13.453125 -9.765625 C 12.421875 -9.765625 11.65625 -9.46875 11.15625 -8.875 C 10.664062 -8.28125 10.421875 -7.363281 10.421875 -6.125 L 10.421875 0 L 8.75 0 L 8.75 -7.140625 C 8.75 -8.015625 8.5625 -8.671875 8.1875 -9.109375 C 7.820312 -9.546875 7.238281 -9.765625 6.4375 -9.765625 C 5.394531 -9.765625 4.628906 -9.453125 4.140625 -8.828125 C 3.660156 -8.203125 3.421875 -7.179688 3.421875 -5.765625 L 3.421875 0 L 1.765625 0 L 1.765625 -10.984375 L 3.109375 -10.984375 L 3.390625 -9.46875 L 3.46875 -9.46875 C 3.78125 -10.007812 4.222656 -10.425781 4.796875 -10.71875 C 5.367188 -11.019531 6.007812 -11.171875 6.71875 -11.171875 C 8.425781 -11.171875 9.546875 -10.550781 10.078125 -9.3125 L 10.15625 -9.3125 C 10.488281 -9.882812 10.960938 -10.335938 11.578125 -10.671875 C 12.203125 -11.003906 12.910156 -11.171875 13.703125 -11.171875 C 14.941406 -11.171875 15.867188 -10.851562 16.484375 -10.21875 C 17.109375 -9.582031 17.421875 -8.5625 17.421875 -7.15625 L 17.421875 0 Z M 15.75 0 "/></g></g></g><g fill="#000000" fill-opacity="1"><g transform="translate(193.686207, 276.2622)"><g><path d="M 3.328125 -10.984375 L 3.328125 -3.859375 C 3.328125 -2.960938 3.53125 -2.289062 3.9375 -1.84375 C 4.34375 -1.40625 4.976562 -1.1875 5.84375 -1.1875 C 7 -1.1875 7.84375 -1.5 8.375 -2.125 C 8.90625 -2.757812 9.171875 -3.785156 9.171875 -5.203125 L 9.171875 -10.984375 L 10.828125 -10.984375 L 10.828125 0 L 9.453125 0 L 9.21875 -1.46875 L 9.125 -1.46875 C 8.78125 -0.925781 8.304688 -0.507812 7.703125 -0.21875 C 7.097656 0.0625 6.410156 0.203125 5.640625 0.203125 C 4.304688 0.203125 3.304688 -0.113281 2.640625 -0.75 C 1.972656 -1.382812 1.640625 -2.398438 1.640625 -3.796875 L 1.640625 -10.984375 Z M 3.328125 -10.984375 "/></g></g></g><g fill="#000000" fill-opacity="1"><g transform="translate(206.273525, 276.2622)"><g><path d="M 9.28125 0 L 9.28125 -7.109375 C 9.28125 -7.992188 9.070312 -8.65625 8.65625 -9.09375 C 8.25 -9.539062 7.613281 -9.765625 6.75 -9.765625 C 5.601562 -9.765625 4.757812 -9.453125 4.21875 -8.828125 C 3.6875 -8.210938 3.421875 -7.191406 3.421875 -5.765625 L 3.421875 0 L 1.765625 0 L 1.765625 -10.984375 L 3.109375 -10.984375 L 3.390625 -9.46875 L 3.46875 -9.46875 C 3.8125 -10.007812 4.285156 -10.425781 4.890625 -10.71875 C 5.503906 -11.019531 6.191406 -11.171875 6.953125 -11.171875 C 8.273438 -11.171875 9.269531 -10.851562 9.9375 -10.21875 C 10.601562 -9.582031 10.9375 -8.5625 10.9375 -7.15625 L 10.9375 0 Z M 9.28125 0 "/></g></g></g><g fill="#000000" fill-opacity="1"><g transform="translate(218.860842, 276.2622)"><g><path d="M 3.421875 0 L 1.765625 0 L 1.765625 -10.984375 L 3.421875 -10.984375 Z M 1.625 -13.953125 C 1.625 -14.335938 1.71875 -14.617188 1.90625 -14.796875 C 2.09375 -14.972656 2.328125 -15.0625 2.609375 -15.0625 C 2.867188 -15.0625 3.097656 -14.96875 3.296875 -14.78125 C 3.492188 -14.601562 3.59375 -14.328125 3.59375 -13.953125 C 3.59375 -13.578125 3.492188 -13.296875 3.296875 -13.109375 C 3.097656 -12.929688 2.867188 -12.84375 2.609375 -12.84375 C 2.328125 -12.84375 2.09375 -12.929688 1.90625 -13.109375 C 1.71875 -13.296875 1.625 -13.578125 1.625 -13.953125 Z M 1.625 -13.953125 "/></g></g></g><g fill="#000000" fill-opacity="1"><g transform="translate(224.047976, 276.2622)"><g><path d="M 5.3125 -1.171875 C 5.601562 -1.171875 5.882812 -1.191406 6.15625 -1.234375 C 6.4375 -1.273438 6.65625 -1.320312 6.8125 -1.375 L 6.8125 -0.09375 C 6.632812 -0.0078125 6.367188 0.0546875 6.015625 0.109375 C 5.660156 0.171875 5.34375 0.203125 5.0625 0.203125 C 2.945312 0.203125 1.890625 -0.914062 1.890625 -3.15625 L 1.890625 -9.6875 L 0.3125 -9.6875 L 0.3125 -10.484375 L 1.890625 -11.171875 L 2.578125 -13.53125 L 3.546875 -13.53125 L 3.546875 -10.984375 L 6.734375 -10.984375 L 6.734375 -9.6875 L 3.546875 -9.6875 L 3.546875 -3.21875 C 3.546875 -2.5625 3.703125 -2.054688 4.015625 -1.703125 C 4.328125 -1.347656 4.757812 -1.171875 5.3125 -1.171875 Z M 5.3125 -1.171875 "/></g></g></g><g fill="#000000" fill-opacity="1"><g transform="translate(231.287939, 276.2622)"><g><path d="M 0.015625 -10.984375 L 1.796875 -10.984375 L 4.203125 -4.71875 C 4.734375 -3.289062 5.0625 -2.257812 5.1875 -1.625 L 5.265625 -1.625 C 5.359375 -1.96875 5.539062 -2.550781 5.8125 -3.375 C 6.09375 -4.195312 7 -6.734375 8.53125 -10.984375 L 10.3125 -10.984375 L 5.59375 1.515625 C 5.132812 2.753906 4.59375 3.628906 3.96875 4.140625 C 3.34375 4.660156 2.570312 4.921875 1.65625 4.921875 C 1.15625 4.921875 0.65625 4.867188 0.15625 4.765625 L 0.15625 3.421875 C 0.53125 3.503906 0.941406 3.546875 1.390625 3.546875 C 2.535156 3.546875 3.351562 2.90625 3.84375 1.625 L 4.453125 0.0625 Z M 0.015625 -10.984375 "/></g></g></g></svg>