<svg xmlns="http://www.w3.org/2000/svg" xmlns:xlink="http://www.w3.org/1999/xlink" width="500" zoomAndPan="magnify" viewBox="0 0 375 374.999991" height="500" preserveAspectRatio="xMidYMid meet" version="1.0"><defs><g/><clipPath id="id1"><path d="M 111.695312 111.695312 L 263.195312 111.695312 L 263.195312 263.195312 L 111.695312 263.195312 Z M 111.695312 111.695312 " clip-rule="nonzero"/></clipPath><clipPath id="id2"><path d="M 122.742188 122.742188 L 252.492188 122.742188 L 252.492188 252.492188 L 122.742188 252.492188 Z M 122.742188 122.742188 " clip-rule="nonzero"/></clipPath><clipPath id="id3"><path d="M 98.117188 167.019531 L 276.617188 167.019531 L 276.617188 208.269531 L 98.117188 208.269531 Z M 98.117188 167.019531 " clip-rule="nonzero"/></clipPath><clipPath id="id4"><path d="M 179.09375 207.980469 L 195.59375 207.980469 L 195.59375 234.980469 L 179.09375 234.980469 Z M 179.09375 207.980469 " clip-rule="nonzero"/></clipPath><clipPath id="id5"><path d="M 165.640625 211.914062 L 177.640625 211.914062 L 177.640625 231.414062 L 165.640625 231.414062 Z M 165.640625 211.914062 " clip-rule="nonzero"/></clipPath><clipPath id="id6"><path d="M 197.410156 211.914062 L 209.410156 211.914062 L 209.410156 231.414062 L 197.410156 231.414062 Z M 197.410156 211.914062 " clip-rule="nonzero"/></clipPath><clipPath id="id7"><path d="M 172.09375 145.136719 L 197.519531 145.136719 L 197.519531 163.886719 L 172.09375 163.886719 Z M 172.09375 145.136719 " clip-rule="nonzero"/></clipPath><clipPath id="id8"><path d="M 177.339844 145.136719 L 202.734375 145.136719 L 202.734375 163.886719 L 177.339844 163.886719 Z M 177.339844 145.136719 " clip-rule="nonzero"/></clipPath></defs><rect x="-37.5" width="450" fill="#ffffff" y="-37.499999" height="449.999989" fill-opacity="1"/><rect x="-37.5" width="450" fill="#ffffff" y="-37.499999" height="449.999989" fill-opacity="1"/><g clip-path="url(#id1)"><path fill="#211d1d" d="M 167.792969 259.335938 C 166.988281 258.417969 164.460938 255.433594 161.914062 251.449219 L 161.773438 251.226562 L 159.652344 252.179688 L 159.722656 252.433594 C 160.375 254.734375 161.390625 257.023438 162.753906 259.253906 L 149.925781 251.847656 C 149.359375 250.699219 147.613281 247.003906 146.152344 242.308594 L 146.074219 242.058594 L 143.78125 242.40625 L 143.777344 242.667969 C 143.777344 245.160156 144.164062 247.742188 144.933594 250.363281 L 134.472656 239.882812 C 134.238281 238.679688 133.542969 234.839844 133.328125 230.113281 L 133.316406 229.847656 L 131.003906 229.613281 L 130.9375 229.871094 C 130.351562 232.1875 130.089844 234.679688 130.152344 237.289062 L 122.746094 224.460938 C 122.832031 223.183594 123.167969 219.105469 124.246094 214.3125 L 124.304688 214.058594 L 122.144531 213.210938 L 122.011719 213.4375 C 120.765625 215.59375 119.808594 218.027344 119.164062 220.679688 L 115.347656 206.375 C 115.742188 205.214844 117.0625 201.539062 119.238281 197.339844 L 119.363281 197.105469 L 117.476562 195.746094 L 117.292969 195.933594 C 115.625 197.648438 114.152344 199.671875 112.902344 201.964844 L 112.902344 187.152344 C 113.613281 186.09375 115.941406 182.730469 119.273438 179.117188 L 119.453125 178.925781 L 118.003906 177.113281 L 117.777344 177.246094 C 115.617188 178.484375 113.574219 180.113281 111.691406 182.089844 L 115.539062 167.792969 C 116.460938 166.988281 119.441406 164.460938 123.425781 161.914062 L 123.648438 161.773438 L 122.695312 159.652344 L 122.441406 159.722656 C 120.140625 160.375 117.851562 161.390625 115.625 162.753906 L 123.03125 149.925781 C 124.175781 149.359375 127.875 147.613281 132.566406 146.152344 L 132.816406 146.074219 L 132.46875 143.78125 L 132.175781 143.78125 C 129.695312 143.78125 127.121094 144.167969 124.511719 144.933594 L 134.996094 134.472656 C 136.195312 134.238281 140.039062 133.542969 144.761719 133.328125 L 145.027344 133.316406 L 145.261719 131.003906 L 145.007812 130.9375 C 142.9375 130.414062 140.699219 130.148438 138.359375 130.148438 C 138.097656 130.148438 137.839844 130.152344 137.578125 130.160156 L 150.414062 122.746094 C 151.691406 122.832031 155.769531 123.167969 160.5625 124.246094 L 160.816406 124.304688 L 161.664062 122.144531 L 161.4375 122.011719 C 159.28125 120.761719 156.847656 119.808594 154.195312 119.164062 L 168.5 115.347656 C 169.660156 115.742188 173.335938 117.0625 177.535156 119.238281 L 177.769531 119.363281 L 179.128906 117.476562 L 178.941406 117.292969 C 177.226562 115.625 175.199219 114.152344 172.910156 112.902344 L 187.722656 112.902344 C 188.785156 113.613281 192.148438 115.941406 195.757812 119.273438 L 195.949219 119.453125 L 197.761719 118.003906 L 197.632812 117.777344 C 196.386719 115.617188 194.761719 113.574219 192.785156 111.6875 L 207.085938 115.539062 C 207.890625 116.460938 210.414062 119.441406 212.960938 123.425781 L 213.105469 123.648438 L 215.222656 122.695312 L 215.152344 122.441406 C 214.5 120.140625 213.484375 117.851562 212.125 115.625 L 224.949219 123.03125 C 225.515625 124.175781 227.265625 127.875 228.722656 132.566406 L 228.800781 132.816406 L 231.097656 132.472656 L 231.097656 132.207031 C 231.101562 129.714844 230.710938 127.132812 229.941406 124.511719 L 240.402344 134.996094 C 240.636719 136.195312 241.332031 140.039062 241.546875 144.761719 L 241.5625 145.027344 L 243.871094 145.261719 L 243.9375 145.007812 C 244.523438 142.6875 244.789062 140.199219 244.722656 137.589844 L 252.128906 150.417969 C 252.042969 151.691406 251.707031 155.769531 250.628906 160.5625 L 250.570312 160.816406 L 252.730469 161.664062 L 252.863281 161.4375 C 254.113281 159.28125 255.070312 156.847656 255.710938 154.195312 L 259.527344 168.5 C 259.132812 169.660156 257.8125 173.335938 255.636719 177.535156 L 255.515625 177.769531 L 257.398438 179.128906 L 257.585938 178.941406 C 259.25 177.226562 260.722656 175.199219 261.972656 172.910156 L 261.972656 187.722656 C 261.265625 188.78125 258.933594 192.144531 255.601562 195.757812 L 255.421875 195.949219 L 256.871094 197.761719 L 257.097656 197.632812 C 259.257812 196.390625 261.300781 194.761719 263.1875 192.785156 L 259.335938 207.085938 C 258.417969 207.890625 255.4375 210.410156 251.449219 212.960938 L 251.226562 213.105469 L 252.179688 215.222656 L 252.433594 215.152344 C 254.734375 214.5 257.023438 213.484375 259.25 212.125 L 251.847656 224.949219 C 250.699219 225.515625 247.003906 227.261719 242.308594 228.722656 L 242.058594 228.800781 L 242.40625 231.097656 L 242.703125 231.097656 C 245.183594 231.097656 247.753906 230.707031 250.363281 229.941406 L 239.882812 240.402344 C 238.679688 240.636719 234.835938 241.332031 230.113281 241.546875 L 229.847656 241.5625 L 229.613281 243.871094 L 229.871094 243.9375 C 231.941406 244.460938 234.175781 244.726562 236.519531 244.726562 C 236.777344 244.726562 237.039062 244.722656 237.296875 244.71875 L 224.460938 252.128906 C 223.183594 252.042969 219.105469 251.707031 214.3125 250.628906 L 214.058594 250.570312 L 213.210938 252.730469 L 213.4375 252.863281 C 215.59375 254.113281 218.027344 255.070312 220.679688 255.710938 L 206.375 259.527344 C 205.214844 259.132812 201.539062 257.8125 197.339844 255.636719 L 197.105469 255.515625 L 195.746094 257.398438 L 195.933594 257.585938 C 197.648438 259.253906 199.675781 260.722656 201.96875 261.972656 L 187.15625 261.972656 C 186.09375 261.265625 182.730469 258.933594 179.121094 255.601562 L 178.925781 255.421875 L 177.113281 256.871094 L 177.242188 257.097656 C 178.488281 259.257812 180.113281 261.300781 182.089844 263.1875 L 167.792969 259.335938 " fill-opacity="1" fill-rule="nonzero"/></g><g clip-path="url(#id2)"><path fill="#ffffff" d="M 187.617188 122.742188 C 151.785156 122.742188 122.742188 151.785156 122.742188 187.617188 C 122.742188 223.445312 151.785156 252.492188 187.617188 252.492188 C 223.445312 252.492188 252.492188 223.445312 252.492188 187.617188 C 252.492188 151.785156 223.445312 122.742188 187.617188 122.742188 " fill-opacity="1" fill-rule="nonzero"/></g><g clip-path="url(#id3)"><path fill="#ffffff" d="M 98.125 167.019531 L 276.609375 167.019531 L 276.609375 208.269531 L 98.125 208.269531 L 98.125 167.019531 " fill-opacity="1" fill-rule="nonzero"/></g><g fill="#211d1d" fill-opacity="1"><g transform="translate(92.506717, 198.184099)"><g><path d="M 16.09375 -21.570312 C 15.773438 -21.570312 15.554688 -21.378906 15.53125 -21.054688 L 14.425781 -8.4375 L 14.289062 -8.4375 L 11.648438 -21.082031 C 11.566406 -21.40625 11.378906 -21.570312 11.054688 -21.570312 L 9.4375 -21.570312 C 9.113281 -21.570312 8.925781 -21.40625 8.84375 -21.082031 L 6.175781 -8.4375 L 6.039062 -8.4375 L 4.988281 -21.054688 C 4.960938 -21.378906 4.746094 -21.570312 4.421875 -21.570312 L 1.859375 -21.570312 C 1.511719 -21.570312 1.320312 -21.351562 1.347656 -21.003906 L 3.558594 -0.511719 C 3.585938 -0.160156 3.773438 0 4.125 0 L 6.820312 0 C 7.144531 0 7.332031 -0.160156 7.414062 -0.457031 L 10.246094 -12.671875 L 13.050781 -0.484375 C 13.128906 -0.160156 13.320312 0 13.640625 0 L 16.285156 0 C 16.636719 0 16.824219 -0.160156 16.851562 -0.511719 L 19.167969 -21.003906 C 19.195312 -21.351562 19.007812 -21.570312 18.65625 -21.570312 Z M 16.09375 -21.570312 "/></g></g></g><g fill="#211d1d" fill-opacity="1"><g transform="translate(122.565122, 198.184099)"><g><path d="M 1.347656 -3.882812 C 1.347656 -1.347656 2.695312 0 5.230469 0 L 8.25 0 C 10.785156 0 12.132812 -1.347656 12.132812 -3.882812 L 12.132812 -17.6875 C 12.132812 -20.21875 10.785156 -21.570312 8.25 -21.570312 L 5.230469 -21.570312 C 2.695312 -21.570312 1.347656 -20.21875 1.347656 -17.6875 Z M 6.011719 -3.476562 C 5.3125 -3.476562 4.933594 -3.828125 4.933594 -4.554688 L 4.933594 -17.011719 C 4.933594 -17.714844 5.3125 -18.089844 6.011719 -18.089844 L 7.574219 -18.089844 C 8.277344 -18.089844 8.65625 -17.714844 8.65625 -17.011719 L 8.65625 -4.554688 C 8.65625 -3.828125 8.277344 -3.476562 7.574219 -3.476562 Z M 6.011719 -3.476562 "/></g></g></g><g fill="#211d1d" fill-opacity="1"><g transform="translate(145.588576, 198.184099)"><g><path d="M 1.347656 -3.882812 C 1.347656 -1.347656 2.695312 0 5.230469 0 L 8.25 0 C 10.785156 0 12.132812 -1.347656 12.132812 -3.882812 L 12.132812 -17.6875 C 12.132812 -20.21875 10.785156 -21.570312 8.25 -21.570312 L 5.230469 -21.570312 C 2.695312 -21.570312 1.347656 -20.21875 1.347656 -17.6875 Z M 6.011719 -3.476562 C 5.3125 -3.476562 4.933594 -3.828125 4.933594 -4.554688 L 4.933594 -17.011719 C 4.933594 -17.714844 5.3125 -18.089844 6.011719 -18.089844 L 7.574219 -18.089844 C 8.277344 -18.089844 8.65625 -17.714844 8.65625 -17.011719 L 8.65625 -4.554688 C 8.65625 -3.828125 8.277344 -3.476562 7.574219 -3.476562 Z M 6.011719 -3.476562 "/></g></g></g><g fill="#211d1d" fill-opacity="1"><g transform="translate(168.61203, 198.184099)"><g><path d="M 1.347656 -0.429688 C 1.347656 -0.136719 1.484375 0 1.78125 0 L 8.25 0 C 10.785156 0 12.132812 -1.347656 12.132812 -3.882812 L 12.132812 -17.660156 C 12.132812 -20.195312 10.785156 -21.570312 8.25 -21.570312 L 1.78125 -21.570312 C 1.484375 -21.570312 1.347656 -21.40625 1.347656 -21.136719 Z M 5.015625 -3.558594 L 5.015625 -18.011719 L 7.496094 -18.011719 C 8.195312 -18.011719 8.574219 -17.632812 8.574219 -16.90625 L 8.574219 -4.636719 C 8.574219 -3.910156 8.195312 -3.558594 7.496094 -3.558594 Z M 5.015625 -3.558594 "/></g></g></g><g fill="#211d1d" fill-opacity="1"><g transform="translate(191.635484, 198.184099)"><g><path d="M 16.09375 -21.570312 C 15.773438 -21.570312 15.554688 -21.378906 15.53125 -21.054688 L 14.425781 -8.4375 L 14.289062 -8.4375 L 11.648438 -21.082031 C 11.566406 -21.40625 11.378906 -21.570312 11.054688 -21.570312 L 9.4375 -21.570312 C 9.113281 -21.570312 8.925781 -21.40625 8.84375 -21.082031 L 6.175781 -8.4375 L 6.039062 -8.4375 L 4.988281 -21.054688 C 4.960938 -21.378906 4.746094 -21.570312 4.421875 -21.570312 L 1.859375 -21.570312 C 1.511719 -21.570312 1.320312 -21.351562 1.347656 -21.003906 L 3.558594 -0.511719 C 3.585938 -0.160156 3.773438 0 4.125 0 L 6.820312 0 C 7.144531 0 7.332031 -0.160156 7.414062 -0.457031 L 10.246094 -12.671875 L 13.050781 -0.484375 C 13.128906 -0.160156 13.320312 0 13.640625 0 L 16.285156 0 C 16.636719 0 16.824219 -0.160156 16.851562 -0.511719 L 19.167969 -21.003906 C 19.195312 -21.351562 19.007812 -21.570312 18.65625 -21.570312 Z M 16.09375 -21.570312 "/></g></g></g><g fill="#211d1d" fill-opacity="1"><g transform="translate(221.693894, 198.184099)"><g><path d="M 1.347656 -3.882812 C 1.347656 -1.347656 2.695312 0 5.230469 0 L 8.25 0 C 10.785156 0 12.132812 -1.347656 12.132812 -3.882812 L 12.132812 -17.6875 C 12.132812 -20.21875 10.785156 -21.570312 8.25 -21.570312 L 5.230469 -21.570312 C 2.695312 -21.570312 1.347656 -20.21875 1.347656 -17.6875 Z M 6.011719 -3.476562 C 5.3125 -3.476562 4.933594 -3.828125 4.933594 -4.554688 L 4.933594 -17.011719 C 4.933594 -17.714844 5.3125 -18.089844 6.011719 -18.089844 L 7.574219 -18.089844 C 8.277344 -18.089844 8.65625 -17.714844 8.65625 -17.011719 L 8.65625 -4.554688 C 8.65625 -3.828125 8.277344 -3.476562 7.574219 -3.476562 Z M 6.011719 -3.476562 "/></g></g></g><g fill="#211d1d" fill-opacity="1"><g transform="translate(244.717353, 198.184099)"><g><path d="M 12.429688 -17.6875 C 12.429688 -20.21875 11.082031 -21.570312 8.546875 -21.570312 L 1.78125 -21.570312 C 1.511719 -21.570312 1.347656 -21.40625 1.347656 -21.136719 L 1.347656 -0.429688 C 1.347656 -0.160156 1.511719 0 1.78125 0 L 4.582031 0 C 4.851562 0 5.015625 -0.160156 5.015625 -0.429688 L 5.015625 -7.226562 L 6.875 -7.226562 L 8.679688 -0.378906 C 8.734375 -0.136719 8.871094 0 9.140625 0 L 11.945312 0 C 12.238281 0 12.402344 -0.160156 12.320312 -0.484375 L 10.460938 -7.550781 C 11.753906 -8.113281 12.429688 -9.300781 12.429688 -11.109375 Z M 5.015625 -10.785156 L 5.015625 -18.011719 L 7.683594 -18.011719 C 8.386719 -18.011719 8.761719 -17.632812 8.761719 -16.929688 L 8.761719 -11.863281 C 8.761719 -11.160156 8.386719 -10.785156 7.683594 -10.785156 Z M 5.015625 -10.785156 "/></g></g></g><g fill="#211d1d" fill-opacity="1"><g transform="translate(268.037303, 198.184099)"><g><path d="M 12.886719 0 C 13.320312 0 13.480469 -0.269531 13.292969 -0.621094 L 8.410156 -11.511719 L 12.996094 -20.921875 C 13.183594 -21.300781 13.023438 -21.570312 12.617188 -21.570312 L 9.785156 -21.570312 C 9.488281 -21.570312 9.300781 -21.433594 9.167969 -21.164062 L 5.015625 -12.671875 L 5.015625 -21.03125 C 5.015625 -21.378906 4.824219 -21.570312 4.476562 -21.570312 L 1.886719 -21.570312 C 1.535156 -21.570312 1.347656 -21.378906 1.347656 -21.03125 L 1.347656 -0.539062 C 1.347656 -0.1875 1.535156 0 1.886719 0 L 4.476562 0 C 4.824219 0 5.015625 -0.1875 5.015625 -0.539062 L 5.015625 -6.496094 L 6.011719 -8.410156 L 9.410156 -0.40625 C 9.515625 -0.136719 9.707031 0 10.03125 0 Z M 12.886719 0 "/></g></g></g><g fill="#211d1d" fill-opacity="1"><g transform="translate(139.935808, 163.274939)"><g><path d="M -3.640625 -2.203125 L -4.140625 -2.484375 L -3.1875 -4.234375 L -2.6875 -3.953125 L -2.859375 -3.453125 L -1.625 -2.78125 L -0.6875 -4.515625 L -1.921875 -5.1875 L -2.234375 -4.78125 L -2.734375 -5.0625 L -2.5 -5.515625 L -2.03125 -6.359375 L -1.78125 -6.8125 L -1.28125 -6.53125 L -1.453125 -6.03125 L 1.59375 -4.375 L 1.953125 -4.78125 L 2.453125 -4.5 L 1.5 -2.75 L 1 -3.03125 L 1.125 -3.53125 L -0.03125 -4.171875 L -0.96875 -2.4375 L 0.1875 -1.796875 L 0.546875 -2.203125 L 1.046875 -1.921875 L 0.09375 -0.171875 L -0.40625 -0.453125 L -0.265625 -0.953125 L -3.3125 -2.609375 Z M -3.640625 -2.203125 "/></g></g></g><g fill="#211d1d" fill-opacity="1"><g transform="translate(143.446174, 157.105581)"><g><path d="M -0.390625 -0.453125 L -0.21875 -0.765625 L -2.75 -4.421875 L -2.171875 -5.21875 L 2.09375 -3.9375 L 2.328125 -4.1875 L 2.796875 -3.84375 L 1.828125 -2.515625 L 1.359375 -2.859375 L 1.5 -3.15625 L 0.84375 -3.375 L -0.078125 -2.109375 L 0.34375 -1.546875 L 0.578125 -1.78125 L 1.046875 -1.4375 L 0.078125 -0.109375 Z M -0.515625 -2.71875 L 0.140625 -3.609375 L -1.5625 -4.171875 L -1.5625 -4.15625 Z M -0.515625 -2.71875 "/></g></g></g><g fill="#211d1d" fill-opacity="1"><g transform="translate(147.451849, 151.772136)"><g><path d="M 0.03125 -7.03125 L 0.453125 -6.640625 L 0.15625 -6.203125 L 3.171875 -3.34375 L 2.5 -2.640625 L -1.203125 -3.453125 L 0.65625 -1.6875 L 1.078125 -1.984375 L 1.5 -1.59375 L 0.125 -0.140625 L -0.296875 -0.53125 L -0.015625 -0.984375 L -2.53125 -3.375 L -2.953125 -3.0625 L -3.375 -3.453125 L -3.015625 -3.828125 L -2.34375 -4.53125 L 1.359375 -3.703125 L 1.359375 -3.71875 L -0.515625 -5.5 L -0.921875 -5.1875 L -1.34375 -5.578125 L -0.328125 -6.65625 Z M 0.03125 -7.03125 "/></g></g></g><g fill="#211d1d" fill-opacity="1"><g transform="translate(152.388105, 146.749224)"><g><path d="M -1.21875 -5.234375 C -0.757812 -5.609375 -0.265625 -5.769531 0.265625 -5.71875 C 0.796875 -5.675781 1.25 -5.421875 1.625 -4.953125 L 2.125 -4.34375 C 2.5 -3.882812 2.65625 -3.390625 2.59375 -2.859375 C 2.539062 -2.328125 2.285156 -1.875 1.828125 -1.5 L 0.140625 -0.125 L -0.21875 -0.578125 L 0.109375 -0.96875 L -2.078125 -3.65625 L -2.546875 -3.421875 L -2.90625 -3.859375 L -2.5 -4.171875 Z M -1.28125 -4.21875 L 0.828125 -1.640625 L 1.328125 -2.046875 C 1.585938 -2.265625 1.71875 -2.523438 1.71875 -2.828125 C 1.726562 -3.140625 1.613281 -3.441406 1.375 -3.734375 L 0.859375 -4.359375 C 0.628906 -4.640625 0.363281 -4.804688 0.0625 -4.859375 C -0.238281 -4.921875 -0.519531 -4.84375 -0.78125 -4.625 Z M -1.28125 -4.21875 "/></g></g></g><g fill="#211d1d" fill-opacity="1"><g transform="translate(157.489735, 142.734797)"><g><path d="M 1.78125 -4.921875 L 1.171875 -4.53125 L 0.75 -5.03125 C 0.613281 -5.050781 0.472656 -5.046875 0.328125 -5.015625 C 0.179688 -4.992188 0.0234375 -4.929688 -0.140625 -4.828125 C -0.492188 -4.609375 -0.6875 -4.304688 -0.71875 -3.921875 C -0.75 -3.535156 -0.632812 -3.132812 -0.375 -2.71875 L -0.28125 -2.578125 C -0.0195312 -2.160156 0.285156 -1.878906 0.640625 -1.734375 C 0.992188 -1.597656 1.347656 -1.644531 1.703125 -1.875 C 1.859375 -1.96875 1.988281 -2.082031 2.09375 -2.21875 C 2.195312 -2.363281 2.257812 -2.492188 2.28125 -2.609375 L 2.015625 -3.203125 L 2.625 -3.59375 L 3.140625 -2.78125 C 3.109375 -2.488281 3 -2.207031 2.8125 -1.9375 C 2.625 -1.664062 2.367188 -1.429688 2.046875 -1.234375 C 1.492188 -0.878906 0.921875 -0.78125 0.328125 -0.9375 C -0.253906 -1.09375 -0.734375 -1.46875 -1.109375 -2.0625 L -1.203125 -2.203125 C -1.578125 -2.796875 -1.707031 -3.390625 -1.59375 -3.984375 C -1.488281 -4.585938 -1.160156 -5.066406 -0.609375 -5.421875 C -0.285156 -5.617188 0.0351562 -5.738281 0.359375 -5.78125 C 0.679688 -5.832031 0.988281 -5.816406 1.28125 -5.734375 Z M 1.78125 -4.921875 "/></g></g></g><g fill="#211d1d" fill-opacity="1"><g transform="translate(162.791008, 139.491394)"><g><path d="M 0.046875 -5.375 C 0.535156 -5.601562 0.972656 -5.671875 1.359375 -5.578125 C 1.753906 -5.492188 2.046875 -5.253906 2.234375 -4.859375 C 2.335938 -4.628906 2.367188 -4.40625 2.328125 -4.1875 C 2.296875 -3.96875 2.1875 -3.753906 2 -3.546875 C 2.300781 -3.597656 2.550781 -3.566406 2.75 -3.453125 C 2.945312 -3.335938 3.109375 -3.144531 3.234375 -2.875 L 3.34375 -2.65625 C 3.382812 -2.5625 3.4375 -2.492188 3.5 -2.453125 C 3.5625 -2.421875 3.640625 -2.414062 3.734375 -2.4375 L 3.859375 -2.46875 L 4.109375 -1.953125 L 3.640625 -1.734375 C 3.359375 -1.597656 3.117188 -1.578125 2.921875 -1.671875 C 2.734375 -1.773438 2.582031 -1.945312 2.46875 -2.1875 L 2.34375 -2.4375 C 2.238281 -2.644531 2.101562 -2.78125 1.9375 -2.84375 C 1.78125 -2.914062 1.597656 -2.910156 1.390625 -2.828125 L 0.671875 -2.484375 L 1.21875 -1.34375 L 1.71875 -1.453125 L 1.96875 -0.9375 L 0.171875 -0.078125 L -0.078125 -0.59375 L 0.34375 -0.921875 L -1.15625 -4.046875 L -1.65625 -3.921875 L -1.90625 -4.4375 L -1.4375 -4.65625 Z M 0.359375 -3.15625 L 0.953125 -3.453125 C 1.203125 -3.566406 1.359375 -3.703125 1.421875 -3.859375 C 1.492188 -4.023438 1.484375 -4.207031 1.390625 -4.40625 C 1.296875 -4.601562 1.160156 -4.726562 0.984375 -4.78125 C 0.816406 -4.84375 0.613281 -4.816406 0.375 -4.703125 L -0.234375 -4.40625 Z M 0.359375 -3.15625 "/></g></g></g><g fill="#211d1d" fill-opacity="1"><g transform="translate(168.677976, 136.800734)"><g><path d="M -0.046875 -0.59375 L 0.25 -0.75 L 0.34375 -5.1875 L 1.265625 -5.5 L 3.984375 -1.984375 L 4.3125 -2.046875 L 4.5 -1.5 L 2.953125 -0.984375 L 2.765625 -1.53125 L 3.0625 -1.6875 L 2.640625 -2.25 L 1.171875 -1.75 L 1.171875 -1.0625 L 1.5 -1.109375 L 1.6875 -0.5625 L 0.140625 -0.046875 Z M 1.15625 -2.5 L 2.203125 -2.859375 L 1.15625 -4.3125 L 1.140625 -4.296875 Z M 1.15625 -2.5 "/></g></g></g><g fill="#211d1d" fill-opacity="1"><g transform="translate(175.067191, 134.812364)"><g><path d="M 0.078125 -0.59375 L 0.546875 -0.8125 L -0.140625 -4.21875 L -0.65625 -4.203125 L -0.78125 -4.765625 L 2.984375 -5.53125 L 3.25 -4.234375 L 2.515625 -4.09375 L 2.375 -4.640625 L 0.828125 -4.328125 L 1.09375 -3.015625 L 2.75 -3.359375 L 2.890625 -2.640625 L 1.234375 -2.296875 L 1.5 -1 L 2.03125 -1 L 2.140625 -0.4375 L 0.1875 -0.03125 Z M 0.078125 -0.59375 "/></g></g></g><g fill="#211d1d" fill-opacity="1"><g transform="translate(180.979746, 133.705715)"><g><path d="M 4.015625 -5.1875 L 4.125 -3.90625 L 3.390625 -3.84375 L 3.296875 -4.375 L 2.40625 -4.296875 L 2.6875 -0.921875 L 3.21875 -0.859375 L 3.265625 -0.28125 L 1.28125 -0.109375 L 1.234375 -0.6875 L 1.734375 -0.84375 L 1.453125 -4.21875 L 0.5625 -4.140625 L 0.578125 -3.609375 L -0.171875 -3.546875 L -0.28125 -4.828125 Z M 4.015625 -5.1875 "/></g></g></g><g fill="#211d1d" fill-opacity="1"><g transform="translate(187.34925, 133.285377)"><g><path d="M 3.390625 -2.015625 L 1.75 -2.0625 L 1.703125 -0.6875 L 3.265625 -0.640625 L 3.3125 -1.21875 L 4.0625 -1.1875 L 4.015625 0.140625 L 0.1875 0 L 0.203125 -0.578125 L 0.734375 -0.65625 L 0.84375 -4.125 L 0.328125 -4.25 L 0.359375 -4.828125 L 0.875 -4.796875 L 4.171875 -4.6875 L 4.125 -3.375 L 3.390625 -3.40625 L 3.359375 -3.96875 L 1.8125 -4.015625 L 1.765625 -2.8125 L 3.40625 -2.765625 Z M 3.390625 -2.015625 "/></g></g></g><g fill="#211d1d" fill-opacity="1"><g transform="translate(193.493837, 133.596399)"><g><path d="M 3.0625 -4.40625 C 3.65625 -4.3125 4.109375 -4.050781 4.421875 -3.625 C 4.742188 -3.195312 4.863281 -2.691406 4.78125 -2.109375 L 4.65625 -1.3125 C 4.5625 -0.726562 4.296875 -0.28125 3.859375 0.03125 C 3.429688 0.34375 2.921875 0.453125 2.328125 0.359375 L 0.1875 0.03125 L 0.28125 -0.546875 L 0.796875 -0.5625 L 1.328125 -4 L 0.84375 -4.171875 L 0.921875 -4.734375 L 1.421875 -4.65625 Z M 2.28125 -3.78125 L 1.765625 -0.484375 L 2.390625 -0.375 C 2.734375 -0.320312 3.019531 -0.394531 3.25 -0.59375 C 3.476562 -0.800781 3.625 -1.085938 3.6875 -1.453125 L 3.8125 -2.265625 C 3.863281 -2.617188 3.8125 -2.925781 3.65625 -3.1875 C 3.5 -3.457031 3.25 -3.617188 2.90625 -3.671875 Z M 2.28125 -3.78125 "/></g></g></g><g fill="#211d1d" fill-opacity="1"><g transform="translate(199.940308, 134.760296)"><g/></g></g><g fill="#211d1d" fill-opacity="1"><g transform="translate(203.366971, 135.656409)"><g><path d="M 3.96875 -3.71875 C 4.488281 -3.53125 4.851562 -3.25 5.0625 -2.875 C 5.269531 -2.5 5.289062 -2.09375 5.125 -1.65625 C 4.976562 -1.21875 4.707031 -0.921875 4.3125 -0.765625 C 3.914062 -0.617188 3.457031 -0.640625 2.9375 -0.828125 L 2.171875 -1.09375 L 1.8125 -0.078125 L 2.25 0.1875 L 2.0625 0.734375 L 0.171875 0.0625 L 0.359375 -0.484375 L 0.890625 -0.40625 L 2.046875 -3.6875 L 1.59375 -3.9375 L 1.796875 -4.484375 L 2.28125 -4.3125 Z M 2.421875 -1.796875 L 3.1875 -1.53125 C 3.4375 -1.4375 3.648438 -1.429688 3.828125 -1.515625 C 4.015625 -1.609375 4.144531 -1.765625 4.21875 -1.984375 C 4.300781 -2.203125 4.300781 -2.40625 4.21875 -2.59375 C 4.132812 -2.78125 3.96875 -2.921875 3.71875 -3.015625 L 2.953125 -3.28125 Z M 2.421875 -1.796875 "/></g></g></g><g fill="#211d1d" fill-opacity="1"><g transform="translate(209.180729, 137.833198)"><g><path d="M 4.265625 -3.28125 C 4.753906 -3.039062 5.078125 -2.738281 5.234375 -2.375 C 5.398438 -2.007812 5.390625 -1.628906 5.203125 -1.234375 C 5.085938 -1.015625 4.929688 -0.851562 4.734375 -0.75 C 4.546875 -0.644531 4.316406 -0.597656 4.046875 -0.609375 C 4.265625 -0.398438 4.382812 -0.179688 4.40625 0.046875 C 4.4375 0.273438 4.382812 0.519531 4.25 0.78125 L 4.140625 1 C 4.097656 1.09375 4.082031 1.171875 4.09375 1.234375 C 4.101562 1.304688 4.144531 1.375 4.21875 1.4375 L 4.3125 1.515625 L 4.0625 2.03125 L 3.609375 1.796875 C 3.328125 1.660156 3.164062 1.484375 3.125 1.265625 C 3.09375 1.046875 3.132812 0.816406 3.25 0.578125 L 3.375 0.34375 C 3.476562 0.125 3.5 -0.0664062 3.4375 -0.234375 C 3.382812 -0.398438 3.265625 -0.539062 3.078125 -0.65625 L 2.375 -1 L 1.8125 0.140625 L 2.203125 0.453125 L 1.953125 0.96875 L 0.171875 0.078125 L 0.421875 -0.4375 L 0.9375 -0.296875 L 2.484375 -3.40625 L 2.0625 -3.71875 L 2.328125 -4.25 L 2.78125 -4.015625 Z M 2.703125 -1.671875 L 3.296875 -1.375 C 3.546875 -1.257812 3.753906 -1.222656 3.921875 -1.265625 C 4.097656 -1.304688 4.234375 -1.421875 4.328125 -1.609375 C 4.429688 -1.804688 4.445312 -1.992188 4.375 -2.171875 C 4.3125 -2.347656 4.160156 -2.492188 3.921875 -2.609375 L 3.3125 -2.90625 Z M 2.703125 -1.671875 "/></g></g></g><g fill="#211d1d" fill-opacity="1"><g transform="translate(214.928184, 140.814177)"><g><path d="M 5.15625 0.5625 C 4.757812 1.15625 4.265625 1.53125 3.671875 1.6875 C 3.085938 1.84375 2.519531 1.738281 1.96875 1.375 C 1.425781 1.007812 1.113281 0.53125 1.03125 -0.0625 C 0.945312 -0.664062 1.101562 -1.265625 1.5 -1.859375 L 1.546875 -1.921875 C 1.929688 -2.515625 2.421875 -2.894531 3.015625 -3.0625 C 3.609375 -3.226562 4.175781 -3.128906 4.71875 -2.765625 C 5.269531 -2.398438 5.582031 -1.910156 5.65625 -1.296875 C 5.738281 -0.691406 5.585938 -0.09375 5.203125 0.5 Z M 4.390625 -0.03125 C 4.660156 -0.445312 4.796875 -0.84375 4.796875 -1.21875 C 4.796875 -1.59375 4.625 -1.894531 4.28125 -2.125 C 3.945312 -2.34375 3.609375 -2.378906 3.265625 -2.234375 C 2.929688 -2.097656 2.625 -1.816406 2.34375 -1.390625 L 2.296875 -1.328125 C 2.015625 -0.898438 1.875 -0.5 1.875 -0.125 C 1.875 0.238281 2.039062 0.53125 2.375 0.75 C 2.71875 0.976562 3.0625 1.019531 3.40625 0.875 C 3.75 0.738281 4.0625 0.457031 4.34375 0.03125 Z M 4.390625 -0.03125 "/></g></g></g><g fill="#211d1d" fill-opacity="1"><g transform="translate(220.37008, 144.560989)"><g><path d="M 4.9375 -2.140625 C 5.382812 -1.753906 5.628906 -1.289062 5.671875 -0.75 C 5.710938 -0.21875 5.539062 0.269531 5.15625 0.71875 L 4.640625 1.328125 C 4.253906 1.773438 3.796875 2.015625 3.265625 2.046875 C 2.734375 2.085938 2.242188 1.914062 1.796875 1.53125 L 0.140625 0.125 L 0.515625 -0.3125 L 0.984375 -0.0625 L 3.234375 -2.703125 L 2.90625 -3.09375 L 3.28125 -3.546875 L 3.671875 -3.21875 Z M 3.921875 -2 L 1.75 0.53125 L 2.234375 0.9375 C 2.492188 1.164062 2.773438 1.253906 3.078125 1.203125 C 3.390625 1.148438 3.664062 0.984375 3.90625 0.703125 L 4.4375 0.09375 C 4.675781 -0.1875 4.796875 -0.476562 4.796875 -0.78125 C 4.796875 -1.09375 4.664062 -1.363281 4.40625 -1.59375 Z M 3.921875 -2 "/></g></g></g><g fill="#211d1d" fill-opacity="1"><g transform="translate(225.221765, 148.852225)"><g><path d="M 5 -1.65625 L 4.578125 -1.265625 L 4.15625 -1.59375 L 2.28125 0.09375 C 2.039062 0.3125 1.921875 0.535156 1.921875 0.765625 C 1.921875 1.003906 2.023438 1.234375 2.234375 1.453125 C 2.429688 1.679688 2.644531 1.804688 2.875 1.828125 C 3.101562 1.847656 3.335938 1.75 3.578125 1.53125 L 5.453125 -0.15625 L 5.1875 -0.59375 L 5.609375 -0.984375 L 6.953125 0.5 L 6.53125 0.890625 L 6.109375 0.5625 L 4.234375 2.25 C 3.835938 2.613281 3.410156 2.757812 2.953125 2.6875 C 2.492188 2.625 2.070312 2.378906 1.6875 1.953125 C 1.289062 1.523438 1.082031 1.078125 1.0625 0.609375 C 1.039062 0.148438 1.226562 -0.257812 1.625 -0.625 L 3.5 -2.3125 L 3.234375 -2.75 L 3.65625 -3.140625 L 4 -2.765625 L 4.65625 -2.046875 Z M 5 -1.65625 "/></g></g></g><g fill="#211d1d" fill-opacity="1"><g transform="translate(229.772455, 154.082952)"><g><path d="M 5 1.546875 L 4.59375 0.953125 L 5.046875 0.515625 C 5.078125 0.390625 5.070312 0.25 5.03125 0.09375 C 5 -0.0625 4.925781 -0.21875 4.8125 -0.375 C 4.570312 -0.71875 4.257812 -0.894531 3.875 -0.90625 C 3.5 -0.914062 3.109375 -0.78125 2.703125 -0.5 L 2.5625 -0.390625 C 2.164062 -0.117188 1.90625 0.191406 1.78125 0.546875 C 1.65625 0.910156 1.707031 1.265625 1.9375 1.609375 C 2.050781 1.765625 2.175781 1.890625 2.3125 1.984375 C 2.457031 2.085938 2.59375 2.144531 2.71875 2.15625 L 3.296875 1.859375 L 3.703125 2.453125 L 2.921875 3 C 2.628906 2.976562 2.34375 2.878906 2.0625 2.703125 C 1.78125 2.535156 1.535156 2.296875 1.328125 1.984375 C 0.953125 1.453125 0.828125 0.890625 0.953125 0.296875 C 1.078125 -0.296875 1.425781 -0.789062 2 -1.1875 L 2.140625 -1.296875 C 2.710938 -1.691406 3.300781 -1.847656 3.90625 -1.765625 C 4.519531 -1.691406 5.015625 -1.390625 5.390625 -0.859375 C 5.597656 -0.546875 5.734375 -0.234375 5.796875 0.078125 C 5.859375 0.398438 5.851562 0.707031 5.78125 1 Z M 5 1.546875 "/></g></g></g><g fill="#211d1d" fill-opacity="1"><g transform="translate(233.253338, 159.23458)"><g><path d="M 6.34375 1.625 L 5.21875 2.234375 L 4.875 1.59375 L 5.328125 1.296875 L 4.90625 0.515625 L 1.921875 2.109375 L 2.0625 2.625 L 1.546875 2.890625 L 0.609375 1.125 L 1.125 0.859375 L 1.453125 1.25 L 4.4375 -0.34375 L 4.015625 -1.125 L 3.53125 -0.90625 L 3.1875 -1.5625 L 4.3125 -2.171875 Z M 6.34375 1.625 "/></g></g></g><g fill="#211d1d" fill-opacity="1"><g transform="translate(140.790288, 219.185942)"><g><path d="M 4.96875 1.65625 L 4.5625 1.0625 L 5.046875 0.625 C 5.078125 0.488281 5.070312 0.34375 5.03125 0.1875 C 5 0.0390625 4.925781 -0.113281 4.8125 -0.28125 C 4.582031 -0.625 4.273438 -0.800781 3.890625 -0.8125 C 3.515625 -0.832031 3.125 -0.707031 2.71875 -0.4375 L 2.578125 -0.34375 C 2.171875 -0.0703125 1.898438 0.238281 1.765625 0.59375 C 1.640625 0.945312 1.691406 1.300781 1.921875 1.65625 C 2.023438 1.800781 2.144531 1.925781 2.28125 2.03125 C 2.414062 2.132812 2.546875 2.195312 2.671875 2.21875 L 3.25 1.9375 L 3.65625 2.53125 L 2.875 3.0625 C 2.570312 3.03125 2.28125 2.925781 2 2.75 C 1.726562 2.570312 1.488281 2.328125 1.28125 2.015625 C 0.914062 1.472656 0.800781 0.90625 0.9375 0.3125 C 1.082031 -0.28125 1.445312 -0.769531 2.03125 -1.15625 L 2.171875 -1.25 C 2.753906 -1.632812 3.347656 -1.78125 3.953125 -1.6875 C 4.554688 -1.601562 5.039062 -1.289062 5.40625 -0.75 C 5.613281 -0.4375 5.742188 -0.117188 5.796875 0.203125 C 5.847656 0.523438 5.835938 0.832031 5.765625 1.125 Z M 4.96875 1.65625 "/></g></g></g><g fill="#211d1d" fill-opacity="1"><g transform="translate(144.716754, 224.785531)"><g><path d="M 0.53125 -0.265625 L 0.78125 -0.046875 L 4.90625 -1.71875 L 5.5625 -0.984375 L 3.375 2.90625 L 3.578125 3.1875 L 3.140625 3.5625 L 2.046875 2.34375 L 2.484375 1.96875 L 2.75 2.15625 L 3.09375 1.5625 L 2.0625 0.390625 L 1.4375 0.671875 L 1.609375 0.96875 L 1.171875 1.34375 L 0.09375 0.109375 Z M 2.765625 0.09375 L 3.5 0.921875 L 4.421875 -0.609375 L 4.40625 -0.625 Z M 2.765625 0.09375 "/></g></g></g><g fill="#211d1d" fill-opacity="1"><g transform="translate(149.673254, 230.176768)"><g><path d="M 4.953125 -2.09375 C 5.359375 -1.726562 5.597656 -1.347656 5.671875 -0.953125 C 5.742188 -0.566406 5.632812 -0.207031 5.34375 0.125 C 5.175781 0.3125 4.984375 0.429688 4.765625 0.484375 C 4.554688 0.535156 4.320312 0.519531 4.0625 0.4375 C 4.21875 0.6875 4.28125 0.925781 4.25 1.15625 C 4.21875 1.382812 4.109375 1.609375 3.921875 1.828125 L 3.75 2.015625 C 3.6875 2.097656 3.648438 2.171875 3.640625 2.234375 C 3.628906 2.304688 3.65625 2.378906 3.71875 2.453125 L 3.796875 2.546875 L 3.421875 2.984375 L 3.03125 2.65625 C 2.800781 2.445312 2.691406 2.234375 2.703125 2.015625 C 2.722656 1.804688 2.820312 1.601562 3 1.40625 L 3.171875 1.203125 C 3.328125 1.015625 3.398438 0.832031 3.390625 0.65625 C 3.390625 0.476562 3.304688 0.3125 3.140625 0.15625 L 2.546875 -0.375 L 1.71875 0.578125 L 2.015625 1 L 1.640625 1.4375 L 0.140625 0.125 L 0.515625 -0.3125 L 0.984375 -0.046875 L 3.265625 -2.65625 L 2.9375 -3.078125 L 3.3125 -3.515625 L 3.703125 -3.171875 Z M 3.046875 -0.9375 L 3.546875 -0.484375 C 3.753906 -0.304688 3.941406 -0.21875 4.109375 -0.21875 C 4.285156 -0.21875 4.445312 -0.300781 4.59375 -0.46875 C 4.738281 -0.632812 4.800781 -0.804688 4.78125 -0.984375 C 4.769531 -1.171875 4.664062 -1.351562 4.46875 -1.53125 L 3.953125 -1.984375 Z M 3.046875 -0.9375 "/></g></g></g><g fill="#211d1d" fill-opacity="1"><g transform="translate(155.129065, 234.721702)"><g><path d="M 4.75 -2.640625 C 5.207031 -2.328125 5.492188 -1.960938 5.609375 -1.546875 C 5.722656 -1.140625 5.648438 -0.738281 5.390625 -0.34375 C 5.128906 0.03125 4.785156 0.242188 4.359375 0.296875 C 3.929688 0.359375 3.488281 0.234375 3.03125 -0.078125 L 2.359375 -0.515625 L 1.765625 0.359375 L 2.140625 0.734375 L 1.8125 1.21875 L 0.15625 0.109375 L 0.484375 -0.375 L 0.953125 -0.1875 L 2.890625 -3.0625 L 2.515625 -3.421875 L 2.84375 -3.90625 L 3.265625 -3.625 Z M 2.78125 -1.140625 L 3.453125 -0.703125 C 3.679688 -0.546875 3.894531 -0.488281 4.09375 -0.53125 C 4.289062 -0.570312 4.453125 -0.6875 4.578125 -0.875 C 4.703125 -1.070312 4.75 -1.269531 4.71875 -1.46875 C 4.6875 -1.675781 4.554688 -1.859375 4.328125 -2.015625 L 3.65625 -2.453125 Z M 2.78125 -1.140625 "/></g></g></g><g fill="#211d1d" fill-opacity="1"><g transform="translate(160.877113, 238.388582)"><g><path d="M 3.90625 -0.421875 L 2.453125 -1.15625 L 1.84375 0.078125 L 3.234375 0.78125 L 3.515625 0.28125 L 4.1875 0.609375 L 3.59375 1.796875 L 0.171875 0.078125 L 0.4375 -0.4375 L 0.9375 -0.296875 L 2.484375 -3.40625 L 2.078125 -3.71875 L 2.34375 -4.234375 L 2.796875 -4 L 5.75 -2.515625 L 5.15625 -1.34375 L 4.5 -1.671875 L 4.703125 -2.203125 L 3.328125 -2.890625 L 2.796875 -1.8125 L 4.25 -1.078125 Z M 3.90625 -0.421875 "/></g></g></g><g fill="#211d1d" fill-opacity="1"><g transform="translate(166.997206, 241.315411)"><g><path d="M 6.421875 -2.890625 L 6.234375 -2.34375 L 5.71875 -2.421875 L 4.359375 1.5 L 3.4375 1.1875 L 2.65625 -2.53125 L 2.640625 -2.53125 L 1.796875 -0.109375 L 2.25 0.171875 L 2.0625 0.71875 L 0.171875 0.0625 L 0.359375 -0.484375 L 0.890625 -0.421875 L 2.03125 -3.6875 L 1.5625 -3.953125 L 1.75 -4.5 L 2.25 -4.328125 L 3.15625 -4.015625 L 3.9375 -0.296875 L 3.953125 -0.296875 L 4.796875 -2.734375 L 4.34375 -3 L 4.53125 -3.546875 L 5.9375 -3.0625 Z M 6.421875 -2.890625 "/></g></g></g><g fill="#211d1d" fill-opacity="1"><g transform="translate(174.331413, 243.652124)"><g><path d="M 5.296875 -3.859375 L 5.046875 -2.609375 L 4.328125 -2.75 L 4.375 -3.28125 L 3.515625 -3.453125 L 2.859375 -0.125 L 3.328125 0.078125 L 3.21875 0.640625 L 1.25 0.25 L 1.359375 -0.3125 L 1.90625 -0.3125 L 2.5625 -3.640625 L 1.6875 -3.828125 L 1.5625 -3.3125 L 0.828125 -3.453125 L 1.078125 -4.703125 Z M 5.296875 -3.859375 "/></g></g></g><g fill="#211d1d" fill-opacity="1"><g transform="translate(181.226652, 244.877202)"><g><path d="M 2.6875 -4.65625 C 3.226562 -4.613281 3.644531 -4.457031 3.9375 -4.1875 C 4.226562 -3.914062 4.359375 -3.5625 4.328125 -3.125 C 4.304688 -2.882812 4.222656 -2.679688 4.078125 -2.515625 C 3.941406 -2.347656 3.742188 -2.210938 3.484375 -2.109375 C 3.773438 -2.003906 3.972656 -1.851562 4.078125 -1.65625 C 4.191406 -1.457031 4.238281 -1.210938 4.21875 -0.921875 L 4.203125 -0.671875 C 4.191406 -0.566406 4.207031 -0.484375 4.25 -0.421875 C 4.289062 -0.359375 4.359375 -0.316406 4.453125 -0.296875 L 4.578125 -0.265625 L 4.53125 0.3125 L 4.015625 0.28125 C 3.703125 0.257812 3.488281 0.160156 3.375 -0.015625 C 3.257812 -0.203125 3.210938 -0.429688 3.234375 -0.703125 L 3.25 -0.96875 C 3.269531 -1.207031 3.21875 -1.394531 3.09375 -1.53125 C 2.976562 -1.675781 2.816406 -1.757812 2.609375 -1.78125 L 1.8125 -1.84375 L 1.71875 -0.578125 L 2.234375 -0.421875 L 2.1875 0.15625 L 0.1875 0.015625 L 0.234375 -0.5625 L 0.75 -0.640625 L 0.984375 -4.09375 L 0.484375 -4.21875 L 0.515625 -4.796875 L 1.03125 -4.765625 Z M 1.859375 -2.59375 L 2.53125 -2.546875 C 2.800781 -2.523438 3.003906 -2.566406 3.140625 -2.671875 C 3.285156 -2.773438 3.367188 -2.929688 3.390625 -3.140625 C 3.398438 -3.359375 3.34375 -3.535156 3.21875 -3.671875 C 3.09375 -3.804688 2.898438 -3.882812 2.640625 -3.90625 L 1.953125 -3.953125 Z M 1.859375 -2.59375 "/></g></g></g><g fill="#211d1d" fill-opacity="1"><g transform="translate(188.326887, 245.204716)"><g><path d="M 1.6875 -4.359375 L 1.28125 -4.265625 L 2.140625 -2.75 L 2.171875 -2.75 L 2.8125 -4.359375 L 2.421875 -4.40625 L 2.390625 -4.984375 L 4.203125 -5.09375 L 4.234375 -4.515625 L 3.828125 -4.421875 L 2.671875 -1.875 L 2.734375 -0.859375 L 3.265625 -0.78125 L 3.296875 -0.203125 L 1.296875 -0.078125 L 1.265625 -0.65625 L 1.765625 -0.796875 L 1.703125 -1.859375 L 0.265625 -4.203125 L -0.140625 -4.234375 L -0.171875 -4.8125 L 1.65625 -4.9375 Z M 1.6875 -4.359375 "/></g></g></g><g fill="#211d1d" fill-opacity="1"><g transform="translate(195.297241, 244.579435)"><g/></g></g><g fill="#211d1d" fill-opacity="1"><g transform="translate(199.248861, 243.876565)"><g><path d="M 2.890625 -4.15625 L 2.171875 -3.96875 L 1.890625 -4.59375 C 1.796875 -4.613281 1.664062 -4.625 1.5 -4.625 C 1.332031 -4.625 1.160156 -4.601562 0.984375 -4.5625 C 0.722656 -4.488281 0.535156 -4.378906 0.421875 -4.234375 C 0.316406 -4.085938 0.285156 -3.925781 0.328125 -3.75 C 0.367188 -3.601562 0.476562 -3.5 0.65625 -3.4375 C 0.832031 -3.375 1.113281 -3.332031 1.5 -3.3125 C 2.050781 -3.300781 2.492188 -3.210938 2.828125 -3.046875 C 3.160156 -2.878906 3.375 -2.601562 3.46875 -2.21875 C 3.582031 -1.820312 3.507812 -1.46875 3.25 -1.15625 C 2.988281 -0.84375 2.597656 -0.617188 2.078125 -0.484375 C 1.710938 -0.390625 1.363281 -0.359375 1.03125 -0.390625 C 0.707031 -0.421875 0.414062 -0.519531 0.15625 -0.6875 L -0.109375 -1.65625 L 0.625 -1.859375 L 0.90625 -1.203125 C 1.019531 -1.148438 1.160156 -1.117188 1.328125 -1.109375 C 1.503906 -1.109375 1.691406 -1.132812 1.890625 -1.1875 C 2.148438 -1.25 2.332031 -1.347656 2.4375 -1.484375 C 2.550781 -1.628906 2.582031 -1.789062 2.53125 -1.96875 C 2.488281 -2.15625 2.390625 -2.285156 2.234375 -2.359375 C 2.078125 -2.429688 1.828125 -2.476562 1.484375 -2.5 C 0.878906 -2.507812 0.40625 -2.582031 0.0625 -2.71875 C -0.269531 -2.863281 -0.488281 -3.125 -0.59375 -3.5 C -0.695312 -3.882812 -0.617188 -4.242188 -0.359375 -4.578125 C -0.109375 -4.910156 0.265625 -5.144531 0.765625 -5.28125 C 1.109375 -5.375 1.441406 -5.398438 1.765625 -5.359375 C 2.085938 -5.328125 2.378906 -5.25 2.640625 -5.125 Z M 2.890625 -4.15625 "/></g></g></g><g fill="#211d1d" fill-opacity="1"><g transform="translate(205.529406, 242.068435)"><g><path d="M 2.28125 -3.203125 L 0.75 -2.59375 L 1.265625 -1.328125 L 2.71875 -1.90625 L 2.53125 -2.453125 L 3.234375 -2.734375 L 3.734375 -1.5 L 0.171875 -0.0625 L -0.046875 -0.59375 L 0.40625 -0.90625 L -0.890625 -4.125 L -1.40625 -4.015625 L -1.625 -4.546875 L -1.140625 -4.75 L 1.921875 -5.96875 L 2.40625 -4.75 L 1.71875 -4.484375 L 1.46875 -4.984375 L 0.03125 -4.40625 L 0.484375 -3.296875 L 2.015625 -3.90625 Z M 2.28125 -3.203125 "/></g></g></g><g fill="#211d1d" fill-opacity="1"><g transform="translate(211.758455, 239.419843)"><g><path d="M -0.28125 -5.359375 C 0.1875 -5.628906 0.617188 -5.726562 1.015625 -5.65625 C 1.410156 -5.59375 1.710938 -5.367188 1.921875 -4.984375 C 2.046875 -4.765625 2.09375 -4.546875 2.0625 -4.328125 C 2.039062 -4.117188 1.945312 -3.898438 1.78125 -3.671875 C 2.070312 -3.742188 2.316406 -3.722656 2.515625 -3.609375 C 2.722656 -3.503906 2.898438 -3.320312 3.046875 -3.0625 L 3.15625 -2.84375 C 3.207031 -2.757812 3.265625 -2.703125 3.328125 -2.671875 C 3.398438 -2.640625 3.484375 -2.640625 3.578125 -2.671875 L 3.6875 -2.71875 L 3.96875 -2.21875 L 3.515625 -1.953125 C 3.242188 -1.804688 3.007812 -1.773438 2.8125 -1.859375 C 2.613281 -1.953125 2.445312 -2.117188 2.3125 -2.359375 L 2.1875 -2.578125 C 2.070312 -2.785156 1.925781 -2.914062 1.75 -2.96875 C 1.582031 -3.019531 1.398438 -3 1.203125 -2.90625 L 0.5 -2.515625 L 1.125 -1.40625 L 1.625 -1.5625 L 1.90625 -1.0625 L 0.15625 -0.09375 L -0.125 -0.59375 L 0.28125 -0.9375 L -1.40625 -3.96875 L -1.90625 -3.8125 L -2.1875 -4.3125 L -1.734375 -4.5625 Z M 0.140625 -3.171875 L 0.734375 -3.5 C 0.972656 -3.632812 1.117188 -3.78125 1.171875 -3.9375 C 1.234375 -4.101562 1.210938 -4.285156 1.109375 -4.484375 C 1.003906 -4.671875 0.863281 -4.785156 0.6875 -4.828125 C 0.507812 -4.878906 0.304688 -4.835938 0.078125 -4.703125 L -0.53125 -4.375 Z M 0.140625 -3.171875 "/></g></g></g><g fill="#211d1d" fill-opacity="1"><g transform="translate(217.8974, 235.825111)"><g><path d="M -1.03125 -4.53125 L -1.28125 -4.265625 L 1.125 -2.4375 L 1.328125 -2.265625 L 1.359375 -2.28125 L 1.234375 -2.53125 L 0.1875 -5.359375 L -0.125 -5.203125 L -0.484375 -5.671875 L 0.9375 -6.71875 L 1.296875 -6.25 L 1 -5.96875 L 2.359375 -1.75 L 1.546875 -1.15625 L -2.09375 -3.671875 L -2.4375 -3.46875 L -2.796875 -3.9375 L -1.390625 -5 Z M -1.03125 -4.53125 "/></g></g></g><g fill="#211d1d" fill-opacity="1"><g transform="translate(223.593034, 231.334241)"><g><path d="M -2.75 -3.234375 L -3.15625 -3.65625 L -1.703125 -5.015625 L -1.296875 -4.59375 L -1.609375 -4.1875 L 0.75 -1.640625 L 1.203125 -1.90625 L 1.59375 -1.484375 L 0.140625 -0.125 L -0.25 -0.546875 L 0.046875 -0.984375 L -2.3125 -3.53125 Z M -2.75 -3.234375 "/></g></g></g><g fill="#211d1d" fill-opacity="1"><g transform="translate(227.01059, 228.052257)"><g><path d="M 0.296875 -5.21875 L -0.171875 -4.671875 L -0.71875 -5.03125 C -0.851562 -5.019531 -0.988281 -4.976562 -1.125 -4.90625 C -1.269531 -4.832031 -1.40625 -4.722656 -1.53125 -4.578125 C -1.800781 -4.253906 -1.894531 -3.90625 -1.8125 -3.53125 C -1.726562 -3.164062 -1.503906 -2.820312 -1.140625 -2.5 L -1.015625 -2.390625 C -0.640625 -2.066406 -0.265625 -1.890625 0.109375 -1.859375 C 0.492188 -1.828125 0.820312 -1.96875 1.09375 -2.28125 C 1.21875 -2.414062 1.304688 -2.5625 1.359375 -2.71875 C 1.421875 -2.882812 1.445312 -3.03125 1.4375 -3.15625 L 1.015625 -3.640625 L 1.484375 -4.1875 L 2.21875 -3.5625 C 2.257812 -3.28125 2.226562 -2.976562 2.125 -2.65625 C 2.03125 -2.34375 1.859375 -2.046875 1.609375 -1.765625 C 1.179688 -1.265625 0.660156 -1.003906 0.046875 -0.984375 C -0.554688 -0.972656 -1.125 -1.195312 -1.65625 -1.65625 L -1.78125 -1.765625 C -2.300781 -2.222656 -2.597656 -2.753906 -2.671875 -3.359375 C -2.742188 -3.972656 -2.566406 -4.53125 -2.140625 -5.03125 C -1.890625 -5.3125 -1.613281 -5.519531 -1.3125 -5.65625 C -1.019531 -5.789062 -0.722656 -5.851562 -0.421875 -5.84375 Z M 0.296875 -5.21875 "/></g></g></g><g fill="#211d1d" fill-opacity="1"><g transform="translate(231.367385, 222.798795)"><g><path d="M 0.078125 -3.9375 L -0.828125 -2.578125 L 0.3125 -1.8125 L 1.171875 -3.109375 L 0.703125 -3.453125 L 1.125 -4.078125 L 2.234375 -3.34375 L 0.109375 -0.15625 L -0.375 -0.484375 L -0.1875 -0.953125 L -3.0625 -2.890625 L -3.421875 -2.515625 L -3.90625 -2.84375 L -3.625 -3.265625 L -1.796875 -6.015625 L -0.703125 -5.28125 L -1.109375 -4.671875 L -1.59375 -4.9375 L -2.453125 -3.65625 L -1.453125 -2.984375 L -0.546875 -4.34375 Z M 0.078125 -3.9375 "/></g></g></g><g clip-path="url(#id4)"><path fill="#211d1d" d="M 186.210938 230.140625 C 186.644531 230.140625 186.609375 230.046875 186.621094 230.457031 C 186.640625 231.523438 186.667969 232.886719 186.273438 233.671875 C 186.167969 233.886719 186.167969 234.269531 186.019531 234.46875 C 186.015625 234.476562 185.863281 234.726562 185.777344 234.859375 C 185.757812 234.894531 185.78125 234.941406 185.824219 234.945312 L 188.867188 234.972656 C 188.910156 234.972656 188.9375 234.925781 188.914062 234.890625 C 188.828125 234.753906 188.675781 234.507812 188.671875 234.5 C 188.523438 234.300781 188.523438 233.914062 188.417969 233.699219 C 188.019531 232.910156 188.050781 231.523438 188.074219 230.453125 C 188.078125 230.046875 188.046875 230.140625 188.476562 230.140625 C 188.757812 230.140625 188.992188 230.3125 189.210938 230.460938 C 189.945312 230.949219 189.761719 230.738281 190.164062 231.507812 C 190.292969 231.753906 191.390625 232.007812 191.675781 232.179688 C 192.136719 232.449219 192.664062 232.679688 193.21875 232.464844 C 193.753906 232.253906 193.8125 232.429688 194.308594 232.597656 C 194.652344 232.714844 195.074219 232.40625 195.183594 232.140625 C 195.191406 232.117188 195.183594 232.089844 195.164062 232.074219 C 194.585938 231.675781 194.339844 231.082031 193.957031 230.839844 C 193.480469 230.53125 194.109375 231.21875 193.699219 231.152344 C 193.347656 231.089844 192.59375 229.554688 192.640625 230.503906 C 192.65625 230.84375 192.066406 230.136719 191.792969 230.023438 C 191.519531 229.910156 190.730469 229.480469 190.539062 229.28125 C 190.015625 228.722656 190.121094 229.507812 189.710938 228.625 C 189.265625 227.667969 189.558594 228.464844 189.460938 227.636719 C 189.398438 227.066406 188.351562 226.417969 190.03125 228.082031 C 190.0625 228.113281 190.113281 228.097656 190.121094 228.054688 C 190.175781 227.832031 190.496094 227.636719 190.898438 228.125 C 191.542969 228.910156 191.144531 228.519531 192.140625 228.820312 C 192.46875 228.921875 192.996094 229.023438 193.363281 229.15625 C 195.074219 229.785156 194.492188 229.378906 194.511719 228.628906 C 194.515625 228.5 194.21875 228.34375 194.917969 229.175781 C 195.59375 229.976562 194.917969 227.863281 193.9375 227.835938 C 193.074219 227.8125 193.726562 227.570312 192.699219 227.523438 C 191.988281 227.492188 192.441406 226.820312 190.597656 226.675781 C 190.242188 226.648438 189.339844 225.585938 189.160156 225.09375 C 189.019531 224.714844 188.046875 223.71875 189.402344 224.816406 C 190.660156 225.832031 189.519531 224.382812 190.542969 225.164062 C 192.390625 226.574219 190.878906 224.582031 192.371094 225.53125 C 192.625 225.691406 192.996094 226.433594 193.015625 226.070312 C 193.035156 225.664062 193.296875 225.433594 192.625 224.863281 C 192.042969 224.371094 191.375 224.511719 190.394531 223.636719 C 189.851562 223.148438 189.582031 223.164062 189.09375 222.367188 C 189 222.21875 188.855469 222 188.742188 221.808594 C 188.710938 221.753906 188.777344 221.699219 188.824219 221.738281 C 190.230469 222.871094 188.90625 221.214844 189.875 222.230469 C 190.734375 223.128906 190.429688 221.984375 192.039062 222.941406 C 192.332031 223.113281 192.746094 223.433594 192.605469 222.863281 C 192.605469 222.855469 191.695312 221.566406 191.550781 221.699219 C 191.113281 222.09375 190.1875 221.058594 189.808594 220.726562 C 189.460938 220.425781 188.972656 219.957031 188.824219 219.546875 C 188.824219 219.546875 188.824219 219.542969 188.820312 219.542969 C 188.800781 219.5 188.835938 219.457031 188.878906 219.46875 C 189.191406 219.527344 189.242188 219.382812 189.355469 219.648438 C 189.417969 219.796875 190.121094 219.777344 190.453125 219.933594 C 191.207031 220.292969 190.660156 220.175781 191.574219 220.152344 C 192.003906 220.140625 191.863281 220.53125 191.566406 219.675781 C 191.292969 218.898438 190.667969 219.488281 190.183594 218.476562 C 189.988281 218.070312 189.261719 217.648438 188.898438 217.375 C 188.835938 217.324219 189.585938 217.4375 189.84375 217.4375 C 190.238281 217.4375 190.496094 217.398438 190.851562 217.527344 C 191.082031 217.617188 191.554688 217.519531 191.6875 217.582031 C 191.707031 217.59375 191.726562 217.589844 191.742188 217.578125 C 191.820312 217.527344 191.660156 217.429688 191.542969 217.21875 C 191.347656 216.863281 191.09375 217.144531 190.710938 216.644531 C 190.414062 216.253906 189.449219 215.957031 189.339844 215.757812 C 189.238281 215.570312 188.953125 215.449219 188.894531 214.929688 C 188.886719 214.851562 188.882812 214.792969 188.871094 214.726562 C 188.863281 214.683594 188.90625 214.648438 188.945312 214.667969 C 189.285156 214.832031 189.121094 215.105469 189.792969 215.085938 C 189.871094 215.082031 190.617188 215.242188 190.78125 215.292969 C 190.804688 215.300781 190.832031 215.292969 190.84375 215.273438 C 191.027344 215 190.367188 214.722656 190.191406 214.359375 C 190.164062 214.304688 189.472656 213.789062 189.292969 213.511719 C 189.222656 213.40625 189.035156 213.375 188.875 213.261719 C 188.824219 213.226562 188.867188 213.148438 188.925781 213.167969 C 189.238281 213.28125 189.472656 213.136719 189.683594 213.152344 C 189.726562 213.160156 189.753906 213.117188 189.738281 213.078125 C 189.535156 212.652344 189.78125 212.746094 189.300781 212.453125 C 189.207031 212.390625 188.707031 212.023438 188.648438 211.929688 C 188.53125 211.742188 188.460938 211.773438 188.3125 211.582031 C 188.28125 211.539062 188.316406 211.480469 188.367188 211.496094 C 188.589844 211.558594 188.613281 211.582031 188.925781 211.585938 C 188.964844 211.585938 188.992188 211.546875 188.976562 211.511719 C 188.65625 210.773438 188.582031 210.910156 188.269531 210.375 C 187.894531 209.726562 187.71875 209.324219 187.554688 208.570312 C 187.542969 208.511719 187.320312 208.050781 187.34375 207.988281 C 187.367188 208.050781 187.144531 208.511719 187.132812 208.570312 C 186.972656 209.324219 186.796875 209.726562 186.421875 210.375 C 186.109375 210.910156 186.035156 210.773438 185.714844 211.511719 C 185.699219 211.546875 185.726562 211.589844 185.761719 211.585938 C 186.074219 211.582031 186.097656 211.558594 186.320312 211.496094 C 186.371094 211.480469 186.410156 211.539062 186.378906 211.582031 C 186.230469 211.773438 186.160156 211.742188 186.042969 211.929688 C 185.984375 212.023438 185.484375 212.390625 185.386719 212.453125 C 184.910156 212.746094 185.15625 212.652344 184.953125 213.078125 C 184.933594 213.117188 184.964844 213.160156 185.007812 213.152344 C 185.21875 213.136719 185.449219 213.28125 185.761719 213.167969 C 185.820312 213.148438 185.863281 213.226562 185.8125 213.261719 C 185.652344 213.375 185.464844 213.40625 185.398438 213.511719 C 185.214844 213.789062 184.527344 214.304688 184.5 214.359375 C 184.324219 214.722656 183.660156 215 183.84375 215.273438 C 183.859375 215.292969 183.882812 215.300781 183.90625 215.292969 C 184.074219 215.242188 184.816406 215.082031 184.894531 215.085938 C 185.570312 215.109375 185.40625 214.832031 185.742188 214.667969 C 185.785156 214.648438 185.824219 214.679688 185.820312 214.726562 C 185.808594 214.792969 185.804688 214.851562 185.792969 214.929688 C 185.738281 215.449219 185.453125 215.570312 185.351562 215.757812 C 185.242188 215.957031 184.277344 216.253906 183.980469 216.644531 C 183.601562 217.144531 183.34375 216.863281 183.148438 217.21875 C 183.035156 217.429688 182.871094 217.527344 182.949219 217.578125 C 182.964844 217.589844 182.984375 217.59375 183.003906 217.582031 C 183.136719 217.515625 183.609375 217.617188 183.839844 217.527344 C 184.195312 217.398438 184.453125 217.4375 184.847656 217.4375 C 185.105469 217.4375 185.855469 217.324219 185.792969 217.375 C 185.429688 217.648438 184.703125 218.074219 184.507812 218.476562 C 184.023438 219.492188 183.398438 218.898438 183.125 219.675781 C 182.828125 220.53125 182.691406 220.140625 183.117188 220.152344 C 184.035156 220.175781 183.484375 220.292969 184.238281 219.933594 C 184.570312 219.777344 185.273438 219.796875 185.335938 219.648438 C 185.449219 219.382812 185.5 219.527344 185.8125 219.46875 C 185.855469 219.457031 185.890625 219.503906 185.871094 219.542969 C 185.871094 219.542969 185.871094 219.546875 185.867188 219.546875 C 185.71875 219.957031 185.230469 220.425781 184.882812 220.726562 C 184.503906 221.058594 183.578125 222.09375 183.140625 221.699219 C 182.996094 221.566406 182.085938 222.855469 182.085938 222.863281 C 181.945312 223.4375 182.359375 223.117188 182.652344 222.941406 C 184.261719 221.984375 183.957031 223.128906 184.816406 222.230469 C 185.785156 221.214844 184.464844 222.871094 185.867188 221.738281 C 185.917969 221.699219 185.980469 221.753906 185.949219 221.808594 C 185.832031 222 185.691406 222.21875 185.597656 222.367188 C 185.105469 223.164062 184.835938 223.148438 184.292969 223.636719 C 183.3125 224.511719 182.640625 224.371094 182.0625 224.863281 C 181.390625 225.433594 181.648438 225.664062 181.671875 226.070312 C 181.691406 226.429688 182.0625 225.691406 182.316406 225.53125 C 183.808594 224.582031 182.296875 226.570312 184.144531 225.164062 C 185.171875 224.382812 184.027344 225.832031 185.285156 224.816406 C 186.640625 223.71875 185.667969 224.714844 185.527344 225.09375 C 185.347656 225.582031 184.441406 226.648438 184.089844 226.675781 C 182.246094 226.820312 182.699219 227.492188 181.988281 227.523438 C 180.960938 227.570312 181.613281 227.8125 180.75 227.835938 C 179.769531 227.863281 179.09375 229.976562 179.765625 229.175781 C 180.46875 228.347656 180.171875 228.5 180.175781 228.628906 C 180.191406 229.378906 179.613281 229.785156 181.320312 229.15625 C 181.695312 229.019531 182.21875 228.917969 182.546875 228.820312 C 183.542969 228.519531 183.144531 228.910156 183.789062 228.125 C 184.191406 227.636719 184.511719 227.832031 184.5625 228.054688 C 184.574219 228.097656 184.621094 228.113281 184.65625 228.082031 C 186.335938 226.421875 185.289062 227.066406 185.222656 227.636719 C 185.128906 228.460938 185.421875 227.664062 184.972656 228.625 C 184.5625 229.507812 184.671875 228.722656 184.148438 229.28125 C 183.957031 229.480469 183.167969 229.910156 182.894531 230.023438 C 182.621094 230.136719 182.03125 230.84375 182.046875 230.503906 C 182.09375 229.554688 181.335938 231.089844 180.984375 231.152344 C 180.578125 231.21875 181.207031 230.53125 180.730469 230.839844 C 180.347656 231.082031 180.101562 231.675781 179.523438 232.074219 C 179.503906 232.089844 179.496094 232.117188 179.503906 232.140625 C 179.613281 232.402344 180.035156 232.710938 180.378906 232.597656 C 180.875 232.429688 180.933594 232.257812 181.46875 232.464844 C 182.023438 232.679688 182.550781 232.449219 183.007812 232.179688 C 183.296875 232.007812 184.394531 231.753906 184.523438 231.507812 C 184.925781 230.738281 184.738281 230.949219 185.472656 230.460938 C 185.699219 230.3125 185.933594 230.140625 186.210938 230.140625 Z M 186.210938 230.140625 " fill-opacity="1" fill-rule="evenodd"/></g><g clip-path="url(#id5)"><path fill="#211d1d" d="M 170.816406 227.917969 C 171.132812 227.917969 171.109375 227.851562 171.113281 228.144531 C 171.128906 228.914062 171.148438 229.902344 170.863281 230.46875 C 170.785156 230.621094 170.785156 230.898438 170.679688 231.042969 C 170.675781 231.050781 170.5625 231.230469 170.503906 231.324219 C 170.488281 231.351562 170.503906 231.382812 170.535156 231.386719 L 172.75 231.40625 C 172.78125 231.40625 172.800781 231.375 172.78125 231.347656 C 172.71875 231.25 172.609375 231.070312 172.609375 231.066406 C 172.5 230.921875 172.5 230.644531 172.421875 230.488281 C 172.132812 229.917969 172.15625 228.914062 172.171875 228.140625 C 172.175781 227.847656 172.152344 227.917969 172.464844 227.917969 C 172.667969 227.917969 172.839844 228.039062 173 228.148438 C 173.535156 228.5 173.398438 228.347656 173.691406 228.90625 C 173.785156 229.082031 174.582031 229.265625 174.792969 229.390625 C 175.128906 229.585938 175.511719 229.753906 175.914062 229.59375 C 176.304688 229.445312 176.34375 229.570312 176.707031 229.691406 C 176.957031 229.773438 177.261719 229.550781 177.34375 229.363281 C 177.351562 229.34375 177.34375 229.324219 177.328125 229.3125 C 176.90625 229.027344 176.730469 228.597656 176.453125 228.421875 C 176.105469 228.199219 176.5625 228.695312 176.265625 228.648438 C 176.007812 228.605469 175.457031 227.492188 175.492188 228.179688 C 175.507812 228.425781 175.074219 227.914062 174.878906 227.832031 C 174.679688 227.75 174.105469 227.441406 173.964844 227.296875 C 173.585938 226.894531 173.664062 227.457031 173.363281 226.824219 C 173.039062 226.128906 173.253906 226.707031 173.183594 226.109375 C 173.136719 225.695312 172.375 225.230469 173.597656 226.429688 C 173.617188 226.453125 173.65625 226.441406 173.664062 226.410156 C 173.699219 226.25 173.933594 226.109375 174.226562 226.460938 C 174.695312 227.027344 174.40625 226.746094 175.132812 226.964844 C 175.367188 227.035156 175.753906 227.109375 176.019531 227.207031 C 177.265625 227.660156 176.839844 227.367188 176.855469 226.824219 C 176.855469 226.730469 176.640625 226.621094 177.152344 227.222656 C 177.640625 227.800781 177.148438 226.269531 176.4375 226.253906 C 175.808594 226.234375 176.28125 226.058594 175.535156 226.027344 C 175.019531 226.003906 175.347656 225.519531 174.007812 225.414062 C 173.75 225.394531 173.09375 224.625 172.960938 224.269531 C 172.859375 223.996094 172.152344 223.277344 173.136719 224.070312 C 174.054688 224.804688 173.222656 223.757812 173.96875 224.324219 C 175.3125 225.339844 174.214844 223.902344 175.296875 224.585938 C 175.480469 224.703125 175.753906 225.238281 175.765625 224.976562 C 175.78125 224.683594 175.972656 224.515625 175.480469 224.105469 C 175.0625 223.75 174.570312 223.851562 173.859375 223.21875 C 173.464844 222.867188 173.269531 222.878906 172.914062 222.304688 C 172.847656 222.195312 172.742188 222.035156 172.660156 221.898438 C 172.636719 221.859375 172.683594 221.820312 172.71875 221.847656 C 173.738281 222.667969 172.777344 221.46875 173.484375 222.203125 C 174.105469 222.851562 173.886719 222.027344 175.054688 222.71875 C 175.269531 222.84375 175.570312 223.074219 175.46875 222.660156 C 175.46875 222.65625 174.804688 221.722656 174.703125 221.820312 C 174.382812 222.105469 173.707031 221.355469 173.433594 221.117188 C 173.179688 220.898438 172.828125 220.5625 172.71875 220.265625 C 172.71875 220.265625 172.71875 220.261719 172.714844 220.261719 C 172.703125 220.234375 172.726562 220.203125 172.757812 220.207031 C 172.984375 220.25 173.023438 220.144531 173.105469 220.339844 C 173.148438 220.445312 173.664062 220.429688 173.902344 220.542969 C 174.449219 220.804688 174.054688 220.71875 174.71875 220.703125 C 175.03125 220.695312 174.929688 220.976562 174.710938 220.359375 C 174.515625 219.796875 174.058594 220.222656 173.707031 219.492188 C 173.566406 219.199219 173.035156 218.894531 172.773438 218.695312 C 172.726562 218.660156 173.273438 218.742188 173.460938 218.742188 C 173.746094 218.742188 173.933594 218.710938 174.191406 218.808594 C 174.359375 218.871094 174.703125 218.800781 174.800781 218.847656 C 174.816406 218.855469 174.828125 218.851562 174.839844 218.84375 C 174.898438 218.804688 174.78125 218.738281 174.695312 218.582031 C 174.554688 218.328125 174.367188 218.53125 174.089844 218.167969 C 173.875 217.886719 173.171875 217.671875 173.09375 217.527344 C 173.019531 217.394531 172.8125 217.304688 172.769531 216.929688 C 172.761719 216.875 172.761719 216.832031 172.75 216.78125 C 172.746094 216.75 172.777344 216.726562 172.808594 216.738281 C 173.054688 216.859375 172.933594 217.058594 173.421875 217.042969 C 173.480469 217.042969 174.023438 217.15625 174.144531 217.191406 C 174.160156 217.199219 174.175781 217.191406 174.1875 217.179688 C 174.320312 216.980469 173.839844 216.78125 173.710938 216.519531 C 173.691406 216.476562 173.191406 216.109375 173.058594 215.90625 C 173.007812 215.828125 172.871094 215.808594 172.757812 215.726562 C 172.71875 215.699219 172.75 215.644531 172.792969 215.65625 C 173.019531 215.738281 173.1875 215.632812 173.34375 215.648438 C 173.375 215.652344 173.394531 215.621094 173.382812 215.589844 C 173.234375 215.285156 173.414062 215.351562 173.066406 215.140625 C 172.996094 215.097656 172.632812 214.832031 172.589844 214.765625 C 172.503906 214.628906 172.453125 214.652344 172.34375 214.511719 C 172.324219 214.480469 172.351562 214.441406 172.386719 214.449219 C 172.546875 214.496094 172.566406 214.511719 172.792969 214.515625 C 172.820312 214.515625 172.839844 214.484375 172.828125 214.460938 C 172.597656 213.929688 172.542969 214.027344 172.3125 213.640625 C 172.042969 213.171875 171.914062 212.882812 171.796875 212.339844 C 171.785156 212.292969 171.625 211.960938 171.640625 211.917969 C 171.660156 211.960938 171.496094 212.292969 171.488281 212.339844 C 171.371094 212.882812 171.242188 213.171875 170.96875 213.640625 C 170.742188 214.027344 170.691406 213.929688 170.457031 214.460938 C 170.445312 214.488281 170.464844 214.519531 170.492188 214.515625 C 170.71875 214.511719 170.734375 214.496094 170.898438 214.449219 C 170.933594 214.441406 170.960938 214.480469 170.9375 214.511719 C 170.832031 214.652344 170.78125 214.628906 170.695312 214.765625 C 170.652344 214.832031 170.289062 215.097656 170.21875 215.140625 C 169.871094 215.351562 170.050781 215.285156 169.902344 215.589844 C 169.890625 215.621094 169.910156 215.652344 169.941406 215.648438 C 170.097656 215.632812 170.265625 215.738281 170.492188 215.65625 C 170.535156 215.644531 170.5625 215.699219 170.527344 215.726562 C 170.410156 215.808594 170.277344 215.832031 170.226562 215.90625 C 170.09375 216.109375 169.59375 216.476562 169.574219 216.519531 C 169.445312 216.78125 168.964844 216.980469 169.097656 217.179688 C 169.105469 217.191406 169.125 217.199219 169.140625 217.191406 C 169.261719 217.15625 169.804688 217.042969 169.859375 217.042969 C 170.351562 217.058594 170.230469 216.859375 170.476562 216.738281 C 170.507812 216.726562 170.539062 216.75 170.53125 216.78125 C 170.523438 216.832031 170.519531 216.875 170.515625 216.929688 C 170.472656 217.304688 170.265625 217.394531 170.191406 217.527344 C 170.113281 217.671875 169.410156 217.886719 169.195312 218.167969 C 168.917969 218.53125 168.730469 218.328125 168.589844 218.582031 C 168.507812 218.738281 168.390625 218.804688 168.445312 218.84375 C 168.457031 218.851562 168.472656 218.855469 168.484375 218.847656 C 168.582031 218.800781 168.925781 218.871094 169.09375 218.808594 C 169.351562 218.710938 169.539062 218.742188 169.828125 218.742188 C 170.011719 218.742188 170.558594 218.660156 170.511719 218.695312 C 170.25 218.894531 169.71875 219.203125 169.578125 219.492188 C 169.226562 220.222656 168.769531 219.796875 168.574219 220.359375 C 168.355469 220.976562 168.257812 220.695312 168.566406 220.703125 C 169.234375 220.71875 168.835938 220.804688 169.382812 220.542969 C 169.625 220.429688 170.136719 220.445312 170.183594 220.339844 C 170.261719 220.144531 170.300781 220.25 170.527344 220.207031 C 170.558594 220.203125 170.582031 220.234375 170.570312 220.261719 C 170.570312 220.261719 170.570312 220.265625 170.570312 220.265625 C 170.460938 220.5625 170.105469 220.898438 169.851562 221.117188 C 169.574219 221.355469 168.902344 222.105469 168.585938 221.820312 C 168.480469 221.722656 167.816406 222.65625 167.816406 222.660156 C 167.714844 223.074219 168.015625 222.84375 168.230469 222.71875 C 169.398438 222.027344 169.179688 222.851562 169.804688 222.203125 C 170.507812 221.46875 169.546875 222.667969 170.570312 221.847656 C 170.601562 221.820312 170.648438 221.859375 170.625 221.898438 C 170.542969 222.039062 170.441406 222.195312 170.371094 222.304688 C 170.011719 222.878906 169.816406 222.867188 169.421875 223.21875 C 168.710938 223.851562 168.222656 223.75 167.800781 224.105469 C 167.3125 224.515625 167.5 224.683594 167.515625 224.976562 C 167.53125 225.238281 167.800781 224.703125 167.984375 224.585938 C 169.070312 223.902344 167.972656 225.339844 169.3125 224.324219 C 170.0625 223.757812 169.226562 224.804688 170.144531 224.070312 C 171.132812 223.277344 170.421875 223.996094 170.320312 224.269531 C 170.1875 224.625 169.53125 225.394531 169.273438 225.414062 C 167.933594 225.519531 168.261719 226.003906 167.746094 226.027344 C 167 226.058594 167.472656 226.234375 166.847656 226.253906 C 166.132812 226.273438 165.640625 227.800781 166.132812 227.222656 C 166.640625 226.621094 166.425781 226.730469 166.429688 226.824219 C 166.441406 227.367188 166.019531 227.660156 167.261719 227.207031 C 167.53125 227.109375 167.914062 227.035156 168.152344 226.964844 C 168.875 226.746094 168.585938 227.027344 169.054688 226.460938 C 169.347656 226.109375 169.582031 226.25 169.621094 226.410156 C 169.625 226.441406 169.664062 226.453125 169.6875 226.429688 C 170.910156 225.230469 170.148438 225.699219 170.101562 226.109375 C 170.03125 226.703125 170.246094 226.128906 169.917969 226.824219 C 169.621094 227.457031 169.695312 226.894531 169.316406 227.296875 C 169.179688 227.441406 168.605469 227.75 168.40625 227.832031 C 168.207031 227.914062 167.777344 228.425781 167.789062 228.179688 C 167.824219 227.492188 167.273438 228.605469 167.019531 228.648438 C 166.722656 228.695312 167.179688 228.199219 166.832031 228.421875 C 166.550781 228.597656 166.375 229.027344 165.953125 229.3125 C 165.941406 229.324219 165.933594 229.34375 165.941406 229.363281 C 166.019531 229.550781 166.328125 229.773438 166.578125 229.691406 C 166.9375 229.570312 166.980469 229.445312 167.367188 229.59375 C 167.773438 229.753906 168.15625 229.585938 168.488281 229.390625 C 168.699219 229.265625 169.496094 229.082031 169.589844 228.90625 C 169.882812 228.347656 169.746094 228.5 170.28125 228.148438 C 170.445312 228.042969 170.613281 227.917969 170.816406 227.917969 Z M 170.816406 227.917969 " fill-opacity="1" fill-rule="evenodd"/></g><g clip-path="url(#id6)"><path fill="#211d1d" d="M 202.585938 227.917969 C 202.902344 227.917969 202.878906 227.851562 202.882812 228.144531 C 202.898438 228.914062 202.917969 229.902344 202.632812 230.46875 C 202.554688 230.621094 202.554688 230.898438 202.449219 231.042969 C 202.445312 231.050781 202.332031 231.230469 202.273438 231.324219 C 202.257812 231.351562 202.273438 231.382812 202.304688 231.386719 L 204.519531 231.40625 C 204.550781 231.40625 204.570312 231.375 204.550781 231.347656 C 204.488281 231.25 204.378906 231.070312 204.375 231.066406 C 204.269531 230.921875 204.269531 230.644531 204.191406 230.488281 C 203.902344 229.917969 203.925781 228.914062 203.941406 228.140625 C 203.945312 227.847656 203.921875 227.917969 204.234375 227.917969 C 204.4375 227.917969 204.609375 228.039062 204.769531 228.148438 C 205.304688 228.5 205.167969 228.347656 205.460938 228.90625 C 205.554688 229.082031 206.351562 229.265625 206.5625 229.390625 C 206.898438 229.585938 207.28125 229.753906 207.683594 229.59375 C 208.074219 229.445312 208.113281 229.570312 208.476562 229.691406 C 208.726562 229.773438 209.03125 229.550781 209.113281 229.363281 C 209.117188 229.34375 209.113281 229.324219 209.097656 229.3125 C 208.675781 229.027344 208.5 228.597656 208.222656 228.421875 C 207.875 228.199219 208.332031 228.695312 208.035156 228.648438 C 207.777344 228.605469 207.226562 227.492188 207.261719 228.179688 C 207.277344 228.425781 206.84375 227.914062 206.644531 227.832031 C 206.449219 227.75 205.871094 227.441406 205.734375 227.296875 C 205.355469 226.894531 205.433594 227.457031 205.132812 226.824219 C 204.808594 226.128906 205.023438 226.707031 204.953125 226.109375 C 204.90625 225.695312 204.140625 225.230469 205.367188 226.429688 C 205.386719 226.453125 205.425781 226.441406 205.433594 226.410156 C 205.46875 226.25 205.703125 226.109375 205.996094 226.460938 C 206.464844 227.027344 206.175781 226.746094 206.898438 226.964844 C 207.136719 227.035156 207.519531 227.109375 207.789062 227.207031 C 209.035156 227.660156 208.609375 227.367188 208.625 226.824219 C 208.625 226.730469 208.410156 226.621094 208.921875 227.222656 C 209.410156 227.800781 208.917969 226.269531 208.207031 226.253906 C 207.578125 226.234375 208.050781 226.058594 207.304688 226.027344 C 206.789062 226.003906 207.117188 225.519531 205.777344 225.414062 C 205.519531 225.394531 204.863281 224.625 204.730469 224.269531 C 204.628906 223.996094 203.921875 223.277344 204.90625 224.070312 C 205.824219 224.804688 204.992188 223.757812 205.738281 224.324219 C 207.082031 225.339844 205.984375 223.902344 207.066406 224.585938 C 207.25 224.703125 207.523438 225.238281 207.535156 224.976562 C 207.550781 224.683594 207.742188 224.515625 207.25 224.105469 C 206.828125 223.75 206.339844 223.851562 205.628906 223.21875 C 205.234375 222.867188 205.039062 222.878906 204.683594 222.304688 C 204.617188 222.195312 204.511719 222.035156 204.429688 221.898438 C 204.40625 221.859375 204.453125 221.820312 204.488281 221.847656 C 205.507812 222.667969 204.546875 221.46875 205.25 222.203125 C 205.875 222.851562 205.65625 222.027344 206.824219 222.71875 C 207.039062 222.84375 207.339844 223.074219 207.238281 222.660156 C 207.234375 222.65625 206.574219 221.722656 206.472656 221.820312 C 206.152344 222.105469 205.476562 221.355469 205.203125 221.117188 C 204.949219 220.898438 204.597656 220.5625 204.488281 220.265625 C 204.488281 220.265625 204.488281 220.261719 204.484375 220.261719 C 204.472656 220.234375 204.496094 220.203125 204.527344 220.207031 C 204.753906 220.25 204.792969 220.144531 204.875 220.339844 C 204.917969 220.445312 205.433594 220.429688 205.671875 220.542969 C 206.21875 220.804688 205.820312 220.71875 206.488281 220.703125 C 206.796875 220.695312 206.699219 220.976562 206.480469 220.359375 C 206.285156 219.796875 205.828125 220.222656 205.476562 219.492188 C 205.335938 219.199219 204.804688 218.894531 204.542969 218.695312 C 204.496094 218.660156 205.042969 218.742188 205.230469 218.742188 C 205.515625 218.742188 205.703125 218.710938 205.960938 218.808594 C 206.128906 218.871094 206.472656 218.800781 206.570312 218.847656 C 206.585938 218.855469 206.597656 218.851562 206.609375 218.84375 C 206.667969 218.804688 206.550781 218.738281 206.464844 218.582031 C 206.324219 218.328125 206.136719 218.53125 205.859375 218.167969 C 205.644531 217.886719 204.941406 217.671875 204.863281 217.527344 C 204.789062 217.394531 204.578125 217.304688 204.539062 216.929688 C 204.53125 216.875 204.527344 216.832031 204.519531 216.78125 C 204.515625 216.75 204.546875 216.726562 204.578125 216.738281 C 204.824219 216.859375 204.703125 217.058594 205.191406 217.042969 C 205.25 217.042969 205.789062 217.15625 205.914062 217.191406 C 205.929688 217.199219 205.945312 217.191406 205.957031 217.179688 C 206.089844 216.980469 205.609375 216.78125 205.480469 216.519531 C 205.460938 216.476562 204.960938 216.109375 204.828125 215.90625 C 204.777344 215.828125 204.640625 215.808594 204.527344 215.726562 C 204.488281 215.699219 204.519531 215.644531 204.5625 215.65625 C 204.789062 215.738281 204.957031 215.632812 205.113281 215.648438 C 205.144531 215.652344 205.164062 215.621094 205.152344 215.589844 C 205.003906 215.285156 205.183594 215.351562 204.835938 215.140625 C 204.765625 215.097656 204.402344 214.832031 204.359375 214.765625 C 204.273438 214.628906 204.222656 214.652344 204.113281 214.511719 C 204.089844 214.480469 204.121094 214.441406 204.15625 214.449219 C 204.316406 214.496094 204.335938 214.511719 204.5625 214.515625 C 204.589844 214.515625 204.609375 214.484375 204.597656 214.460938 C 204.367188 213.929688 204.3125 214.027344 204.082031 213.640625 C 203.8125 213.171875 203.683594 212.882812 203.566406 212.339844 C 203.554688 212.292969 203.394531 211.960938 203.410156 211.917969 C 203.429688 211.960938 203.265625 212.292969 203.257812 212.339844 C 203.140625 212.882812 203.011719 213.171875 202.738281 213.640625 C 202.511719 214.027344 202.460938 213.929688 202.226562 214.460938 C 202.214844 214.488281 202.234375 214.519531 202.261719 214.515625 C 202.488281 214.511719 202.503906 214.496094 202.667969 214.449219 C 202.703125 214.441406 202.730469 214.480469 202.707031 214.511719 C 202.601562 214.652344 202.550781 214.628906 202.464844 214.765625 C 202.421875 214.832031 202.058594 215.097656 201.988281 215.140625 C 201.640625 215.351562 201.820312 215.285156 201.671875 215.589844 C 201.65625 215.621094 201.679688 215.652344 201.710938 215.648438 C 201.867188 215.632812 202.035156 215.738281 202.261719 215.65625 C 202.304688 215.644531 202.332031 215.699219 202.296875 215.726562 C 202.179688 215.808594 202.042969 215.832031 201.996094 215.90625 C 201.863281 216.109375 201.363281 216.476562 201.34375 216.519531 C 201.214844 216.78125 200.730469 216.980469 200.867188 217.179688 C 200.875 217.191406 200.894531 217.199219 200.910156 217.191406 C 201.03125 217.15625 201.574219 217.042969 201.628906 217.042969 C 202.121094 217.058594 202 216.859375 202.246094 216.738281 C 202.277344 216.726562 202.308594 216.75 202.300781 216.78125 C 202.292969 216.832031 202.289062 216.875 202.285156 216.929688 C 202.242188 217.304688 202.035156 217.394531 201.960938 217.527344 C 201.882812 217.671875 201.179688 217.886719 200.964844 218.167969 C 200.6875 218.53125 200.5 218.328125 200.359375 218.582031 C 200.277344 218.738281 200.160156 218.804688 200.214844 218.84375 C 200.226562 218.851562 200.242188 218.855469 200.253906 218.847656 C 200.351562 218.800781 200.695312 218.871094 200.863281 218.808594 C 201.121094 218.710938 201.308594 218.742188 201.597656 218.742188 C 201.78125 218.742188 202.328125 218.660156 202.28125 218.695312 C 202.019531 218.894531 201.488281 219.203125 201.347656 219.492188 C 200.996094 220.222656 200.539062 219.796875 200.34375 220.359375 C 200.125 220.976562 200.027344 220.695312 200.335938 220.703125 C 201.003906 220.71875 200.605469 220.804688 201.152344 220.542969 C 201.394531 220.429688 201.90625 220.445312 201.953125 220.339844 C 202.03125 220.144531 202.070312 220.25 202.296875 220.207031 C 202.328125 220.203125 202.351562 220.234375 202.339844 220.261719 C 202.339844 220.261719 202.339844 220.265625 202.339844 220.265625 C 202.226562 220.5625 201.875 220.898438 201.621094 221.117188 C 201.34375 221.355469 200.671875 222.105469 200.355469 221.820312 C 200.25 221.722656 199.585938 222.65625 199.585938 222.660156 C 199.484375 223.074219 199.785156 222.84375 200 222.71875 C 201.167969 222.027344 200.949219 222.851562 201.574219 222.203125 C 202.277344 221.46875 201.316406 222.667969 202.339844 221.847656 C 202.371094 221.820312 202.417969 221.859375 202.394531 221.898438 C 202.3125 222.039062 202.207031 222.195312 202.140625 222.304688 C 201.78125 222.878906 201.585938 222.867188 201.191406 223.21875 C 200.480469 223.851562 199.992188 223.75 199.570312 224.105469 C 199.082031 224.515625 199.269531 224.683594 199.285156 224.976562 C 199.300781 225.238281 199.570312 224.703125 199.753906 224.585938 C 200.839844 223.902344 199.742188 225.339844 201.082031 224.324219 C 201.832031 223.757812 200.996094 224.804688 201.914062 224.070312 C 202.898438 223.277344 202.191406 223.996094 202.089844 224.269531 C 201.957031 224.625 201.300781 225.394531 201.042969 225.414062 C 199.703125 225.519531 200.03125 226.003906 199.515625 226.027344 C 198.769531 226.058594 199.242188 226.234375 198.613281 226.253906 C 197.902344 226.273438 197.410156 227.800781 197.902344 227.222656 C 198.410156 226.621094 198.195312 226.730469 198.199219 226.824219 C 198.210938 227.367188 197.789062 227.660156 199.03125 227.207031 C 199.300781 227.109375 199.683594 227.035156 199.921875 226.964844 C 200.644531 226.746094 200.355469 227.027344 200.824219 226.460938 C 201.117188 226.109375 201.351562 226.25 201.390625 226.410156 C 201.394531 226.441406 201.433594 226.453125 201.453125 226.429688 C 202.679688 225.230469 201.917969 225.699219 201.871094 226.109375 C 201.800781 226.703125 202.015625 226.128906 201.6875 226.824219 C 201.390625 227.457031 201.464844 226.894531 201.085938 227.296875 C 200.949219 227.441406 200.375 227.75 200.175781 227.832031 C 199.976562 227.914062 199.546875 228.425781 199.558594 228.179688 C 199.59375 227.492188 199.042969 228.605469 198.789062 228.648438 C 198.492188 228.695312 198.949219 228.199219 198.601562 228.421875 C 198.320312 228.597656 198.144531 229.027344 197.722656 229.3125 C 197.707031 229.324219 197.703125 229.34375 197.707031 229.363281 C 197.789062 229.550781 198.09375 229.773438 198.347656 229.691406 C 198.707031 229.570312 198.75 229.445312 199.136719 229.59375 C 199.539062 229.753906 199.925781 229.585938 200.257812 229.390625 C 200.46875 229.265625 201.265625 229.082031 201.359375 228.90625 C 201.652344 228.347656 201.515625 228.5 202.050781 228.148438 C 202.214844 228.042969 202.382812 227.917969 202.585938 227.917969 Z M 202.585938 227.917969 " fill-opacity="1" fill-rule="evenodd"/></g><g clip-path="url(#id7)"><path fill="#211d1d" d="M 179.589844 145.265625 C 178.621094 146.0625 177.246094 148.066406 176.367188 148.992188 C 174.988281 150.449219 173.9375 151.117188 172.09375 151.96875 C 172.9375 154.261719 175.921875 156.476562 177.761719 156.707031 L 178.832031 151.074219 C 178.832031 151.074219 178.90625 150.511719 179.371094 150.421875 C 179.546875 150.390625 179.585938 150.371094 179.699219 150.230469 C 180.539062 149.222656 181.378906 148.210938 182.214844 147.199219 C 182.3125 147.085938 182.25 147.035156 182.140625 146.945312 C 181.445312 146.382812 180.746094 145.820312 180.050781 145.253906 C 179.84375 145.089844 179.792969 145.097656 179.589844 145.265625 Z M 179.851562 150.488281 C 180.277344 151.035156 181.195312 152.109375 182.609375 153.242188 C 183.003906 153.554688 183.53125 153.960938 184.136719 154.410156 L 184.355469 154.257812 C 185.167969 153.679688 185.949219 153.085938 186.691406 152.433594 C 186.644531 152.386719 186.601562 152.34375 186.554688 152.296875 C 185.726562 151.460938 184.917969 150.6875 184.339844 149.964844 C 183.839844 149.339844 183.414062 148.855469 183.050781 148.476562 C 182.835938 148.25 182.613281 148.027344 182.378906 147.816406 C 182.277344 147.726562 182.121094 147.753906 182.039062 147.855469 L 181.929688 147.984375 L 185.574219 152.109375 L 181.425781 148.597656 L 181.28125 148.777344 L 183.730469 151.550781 L 180.945312 149.191406 C 180.570312 149.644531 180.199219 150.09375 179.851562 150.488281 Z M 188.246094 157.445312 C 189.726562 158.546875 191.035156 159.539062 191.578125 160.050781 C 192.382812 160.804688 193.003906 161.902344 193.363281 162.632812 C 193.804688 163.527344 193.832031 163.804688 194.886719 163.871094 C 195.433594 163.902344 196.253906 163.910156 196.832031 163.730469 C 199.132812 163.019531 194.144531 158.363281 193.648438 157.90625 C 192.746094 157.066406 191.75 156.367188 190.714844 155.636719 L 190.4375 155.839844 L 193.632812 158.78125 L 189.902344 156.230469 L 189.714844 156.371094 L 191.984375 158.460938 L 189.332031 156.648438 C 189.0625 156.847656 188.792969 157.042969 188.523438 157.242188 Z M 192.113281 159.707031 C 192.875 160.601562 193.574219 161.527344 194.078125 162.59375 C 194.375 163.226562 194.902344 163.34375 195.550781 163.292969 C 195.9375 163.265625 196.300781 163.1875 196.417969 163.082031 C 196.410156 162.300781 195.429688 162.539062 194.957031 162.351562 C 194.765625 162.273438 194.632812 162.128906 194.445312 161.929688 C 194.277344 161.757812 194.101562 161.59375 193.941406 161.414062 C 193.363281 160.796875 192.789062 160.214844 192.121094 159.691406 C 192.113281 159.6875 192.105469 159.699219 192.113281 159.707031 Z M 177.398438 155.945312 L 178.484375 150.976562 L 177.019531 154.105469 C 176.644531 154.210938 175.664062 154.175781 175.445312 153.804688 C 175.203125 153.402344 175.0625 152.949219 174.589844 152.769531 C 174.148438 152.601562 173.71875 152.394531 173.699219 151.644531 C 173.539062 151.726562 173.128906 151.9375 172.808594 152.074219 C 173.613281 153.882812 175.84375 155.578125 177.398438 155.945312 Z M 178.015625 147.753906 C 178.492188 147.199219 178.839844 146.507812 179.3125 145.917969 C 179.433594 145.777344 179.542969 145.664062 179.714844 145.597656 C 179.804688 145.570312 179.875 145.566406 179.96875 145.585938 C 180.070312 145.613281 180.144531 145.65625 180.226562 145.71875 C 180.589844 145.996094 181.164062 146.523438 181.519531 146.730469 C 181.210938 146.664062 180.425781 146.089844 180.109375 145.882812 C 180.050781 145.84375 179.992188 145.816406 179.921875 145.804688 C 179.871094 145.792969 179.835938 145.796875 179.789062 145.816406 C 179.667969 145.867188 179.574219 145.972656 179.488281 146.070312 C 179.039062 146.597656 178.539062 147.339844 178.015625 147.753906 " fill-opacity="1" fill-rule="evenodd"/></g><g clip-path="url(#id8)"><path fill="#211d1d" d="M 195.238281 145.265625 C 196.207031 146.0625 197.582031 148.066406 198.460938 148.992188 C 199.839844 150.449219 200.890625 151.117188 202.734375 151.96875 C 201.890625 154.261719 198.90625 156.476562 197.066406 156.707031 L 195.996094 151.074219 C 195.996094 151.074219 195.921875 150.511719 195.457031 150.421875 C 195.28125 150.390625 195.242188 150.371094 195.128906 150.230469 C 194.289062 149.222656 193.449219 148.210938 192.613281 147.199219 C 192.515625 147.085938 192.578125 147.035156 192.6875 146.945312 C 193.382812 146.382812 194.082031 145.820312 194.78125 145.253906 C 194.984375 145.089844 195.035156 145.097656 195.238281 145.265625 Z M 194.980469 150.488281 C 194.550781 151.035156 193.632812 152.109375 192.21875 153.242188 C 190.1875 154.867188 184.550781 158.828125 183.25 160.050781 C 182.445312 160.804688 181.824219 161.902344 181.464844 162.632812 C 181.023438 163.527344 180.996094 163.804688 179.941406 163.871094 C 179.394531 163.902344 178.574219 163.910156 177.996094 163.730469 C 175.695312 163.019531 180.6875 158.363281 181.179688 157.90625 C 183.257812 155.976562 185.839844 154.761719 188.273438 152.296875 C 189.101562 151.460938 189.910156 150.6875 190.488281 149.964844 C 190.988281 149.339844 191.414062 148.855469 191.777344 148.476562 C 191.992188 148.25 192.214844 148.027344 192.449219 147.816406 C 192.550781 147.726562 192.707031 147.753906 192.789062 147.855469 L 192.898438 147.984375 L 189.253906 152.109375 L 193.402344 148.597656 L 193.546875 148.777344 L 191.097656 151.550781 L 193.882812 149.191406 C 194.257812 149.644531 194.632812 150.09375 194.980469 150.488281 Z M 182.714844 159.707031 C 181.953125 160.601562 181.253906 161.527344 180.75 162.59375 C 180.453125 163.226562 179.925781 163.34375 179.277344 163.292969 C 178.890625 163.265625 178.527344 163.1875 178.410156 163.082031 C 178.417969 162.300781 179.398438 162.539062 179.871094 162.351562 C 180.0625 162.273438 180.199219 162.128906 180.386719 161.929688 C 180.550781 161.757812 180.726562 161.59375 180.886719 161.414062 C 181.464844 160.796875 182.042969 160.214844 182.707031 159.691406 C 182.714844 159.6875 182.722656 159.699219 182.714844 159.707031 Z M 197.429688 155.945312 L 196.34375 150.976562 L 197.808594 154.105469 C 198.183594 154.210938 199.164062 154.175781 199.382812 153.804688 C 199.625 153.402344 199.765625 152.949219 200.238281 152.769531 C 200.679688 152.601562 201.109375 152.394531 201.128906 151.644531 C 201.289062 151.726562 201.699219 151.9375 202.019531 152.074219 C 201.214844 153.882812 198.984375 155.578125 197.429688 155.945312 Z M 196.8125 147.753906 C 196.335938 147.199219 195.988281 146.507812 195.515625 145.917969 C 195.394531 145.777344 195.289062 145.664062 195.113281 145.597656 C 195.023438 145.570312 194.953125 145.566406 194.859375 145.585938 C 194.757812 145.613281 194.683594 145.65625 194.601562 145.71875 C 194.238281 145.996094 193.664062 146.523438 193.308594 146.730469 C 193.617188 146.664062 194.402344 146.089844 194.71875 145.882812 C 194.777344 145.84375 194.835938 145.816406 194.90625 145.804688 C 194.957031 145.792969 194.992188 145.796875 195.039062 145.816406 C 195.160156 145.867188 195.253906 145.972656 195.339844 146.070312 C 195.789062 146.597656 196.289062 147.339844 196.8125 147.753906 " fill-opacity="1" fill-rule="evenodd"/></g><g fill="#211d1d" fill-opacity="1"><g transform="translate(151.423538, 163.557913)"><g><path d="M 2.78125 -1.78125 L 1.40625 -1.78125 L 1.40625 -0.625 L 2.71875 -0.625 L 2.75 -1.109375 L 3.375 -1.109375 L 3.375 0 L 0.15625 0 L 0.15625 -0.484375 L 0.59375 -0.578125 L 0.59375 -3.484375 L 0.15625 -3.578125 L 0.15625 -4.0625 L 3.375 -4.0625 L 3.375 -2.953125 L 2.734375 -2.953125 L 2.703125 -3.4375 L 1.40625 -3.4375 L 1.40625 -2.421875 L 2.78125 -2.421875 Z M 2.78125 -1.78125 "/></g></g></g><g fill="#211d1d" fill-opacity="1"><g transform="translate(155.844512, 163.557913)"><g><path d="M 3.25 -2.765625 L 2.640625 -2.765625 L 2.53125 -3.328125 C 2.457031 -3.367188 2.351562 -3.40625 2.21875 -3.4375 C 2.082031 -3.476562 1.9375 -3.5 1.78125 -3.5 C 1.5625 -3.5 1.390625 -3.453125 1.265625 -3.359375 C 1.140625 -3.265625 1.078125 -3.140625 1.078125 -2.984375 C 1.078125 -2.847656 1.140625 -2.734375 1.265625 -2.640625 C 1.398438 -2.554688 1.625 -2.46875 1.9375 -2.375 C 2.382812 -2.25 2.722656 -2.082031 2.953125 -1.875 C 3.179688 -1.664062 3.296875 -1.394531 3.296875 -1.0625 C 3.296875 -0.71875 3.160156 -0.441406 2.890625 -0.234375 C 2.617188 -0.0351562 2.253906 0.0625 1.796875 0.0625 C 1.472656 0.0625 1.179688 0.0078125 0.921875 -0.09375 C 0.660156 -0.195312 0.445312 -0.335938 0.28125 -0.515625 L 0.28125 -1.375 L 0.90625 -1.375 L 1 -0.796875 C 1.082031 -0.722656 1.191406 -0.664062 1.328125 -0.625 C 1.472656 -0.582031 1.628906 -0.5625 1.796875 -0.5625 C 2.023438 -0.5625 2.195312 -0.601562 2.3125 -0.6875 C 2.425781 -0.78125 2.484375 -0.90625 2.484375 -1.0625 C 2.484375 -1.21875 2.425781 -1.34375 2.3125 -1.4375 C 2.207031 -1.53125 2.015625 -1.617188 1.734375 -1.703125 C 1.253906 -1.847656 0.890625 -2.015625 0.640625 -2.203125 C 0.390625 -2.390625 0.265625 -2.648438 0.265625 -2.984375 C 0.265625 -3.316406 0.40625 -3.585938 0.6875 -3.796875 C 0.96875 -4.003906 1.320312 -4.113281 1.75 -4.125 C 2.0625 -4.125 2.34375 -4.078125 2.59375 -3.984375 C 2.851562 -3.890625 3.070312 -3.757812 3.25 -3.59375 Z M 3.25 -2.765625 "/></g></g></g><g fill="#211d1d" fill-opacity="1"><g transform="translate(160.081333, 163.557913)"><g><path d="M 3.734375 -4.0625 L 3.734375 -2.984375 L 3.109375 -2.984375 L 3.078125 -3.4375 L 2.328125 -3.4375 L 2.328125 -0.578125 L 2.765625 -0.484375 L 2.765625 0 L 1.078125 0 L 1.078125 -0.484375 L 1.515625 -0.578125 L 1.515625 -3.4375 L 0.765625 -3.4375 L 0.734375 -2.984375 L 0.109375 -2.984375 L 0.109375 -4.0625 Z M 3.734375 -4.0625 "/></g></g></g><g fill="#211d1d" fill-opacity="1"><g transform="translate(164.694829, 163.557913)"><g><path d="M 1.984375 -4.0625 C 2.484375 -4.0625 2.894531 -3.898438 3.21875 -3.578125 C 3.539062 -3.265625 3.703125 -2.863281 3.703125 -2.375 L 3.703125 -1.6875 C 3.703125 -1.195312 3.539062 -0.789062 3.21875 -0.46875 C 2.894531 -0.15625 2.484375 0 1.984375 0 L 0.15625 0 L 0.15625 -0.484375 L 0.59375 -0.578125 L 0.59375 -3.484375 L 0.15625 -3.578125 L 0.15625 -4.0625 Z M 1.40625 -3.4375 L 1.40625 -0.625 L 1.9375 -0.625 C 2.226562 -0.625 2.457031 -0.722656 2.625 -0.921875 C 2.789062 -1.117188 2.875 -1.375 2.875 -1.6875 L 2.875 -2.375 C 2.875 -2.6875 2.789062 -2.941406 2.625 -3.140625 C 2.457031 -3.335938 2.226562 -3.4375 1.9375 -3.4375 Z M 1.40625 -3.4375 "/></g></g></g><g fill="#211d1d" fill-opacity="1"><g transform="translate(206.371573, 163.557913)"><g><path d="M 0.203125 0 L 0.203125 -0.53125 L 1.515625 -1.9375 C 1.703125 -2.15625 1.835938 -2.335938 1.921875 -2.484375 C 2.003906 -2.640625 2.046875 -2.78125 2.046875 -2.90625 C 2.046875 -3.082031 2 -3.222656 1.90625 -3.328125 C 1.8125 -3.441406 1.679688 -3.5 1.515625 -3.5 C 1.328125 -3.5 1.179688 -3.429688 1.078125 -3.296875 C 0.984375 -3.171875 0.9375 -3.003906 0.9375 -2.796875 L 0.140625 -2.796875 L 0.140625 -2.8125 C 0.128906 -3.175781 0.25 -3.484375 0.5 -3.734375 C 0.75 -3.992188 1.085938 -4.125 1.515625 -4.125 C 1.929688 -4.125 2.257812 -4.015625 2.5 -3.796875 C 2.738281 -3.578125 2.859375 -3.285156 2.859375 -2.921875 C 2.859375 -2.679688 2.789062 -2.457031 2.65625 -2.25 C 2.519531 -2.039062 2.296875 -1.769531 1.984375 -1.4375 L 1.265625 -0.640625 L 1.265625 -0.625 L 2.328125 -0.625 L 2.359375 -1.03125 L 2.984375 -1.03125 L 2.984375 0 Z M 0.203125 0 "/></g></g></g><g fill="#211d1d" fill-opacity="1"><g transform="translate(210.301475, 163.557913)"><g><path d="M 3.015625 -1.578125 C 3.015625 -1.046875 2.890625 -0.640625 2.640625 -0.359375 C 2.398438 -0.078125 2.070312 0.0625 1.65625 0.0625 C 1.226562 0.0625 0.890625 -0.078125 0.640625 -0.359375 C 0.390625 -0.640625 0.265625 -1.046875 0.265625 -1.578125 L 0.265625 -2.484375 C 0.265625 -3.015625 0.390625 -3.421875 0.640625 -3.703125 C 0.890625 -3.984375 1.222656 -4.125 1.640625 -4.125 C 2.066406 -4.125 2.398438 -3.984375 2.640625 -3.703125 C 2.890625 -3.421875 3.015625 -3.015625 3.015625 -2.484375 Z M 2.203125 -2.5625 C 2.203125 -2.882812 2.15625 -3.117188 2.0625 -3.265625 C 1.96875 -3.421875 1.828125 -3.5 1.640625 -3.5 C 1.460938 -3.5 1.320312 -3.421875 1.21875 -3.265625 C 1.125 -3.117188 1.078125 -2.882812 1.078125 -2.5625 L 1.078125 -1.5 C 1.078125 -1.175781 1.125 -0.9375 1.21875 -0.78125 C 1.320312 -0.632812 1.46875 -0.5625 1.65625 -0.5625 C 1.832031 -0.5625 1.96875 -0.632812 2.0625 -0.78125 C 2.15625 -0.9375 2.203125 -1.175781 2.203125 -1.5 Z M 2.203125 -2.5625 "/></g></g></g><g fill="#211d1d" fill-opacity="1"><g transform="translate(214.337405, 163.557913)"><g><path d="M 0.203125 0 L 0.203125 -0.53125 L 1.515625 -1.9375 C 1.703125 -2.15625 1.835938 -2.335938 1.921875 -2.484375 C 2.003906 -2.640625 2.046875 -2.78125 2.046875 -2.90625 C 2.046875 -3.082031 2 -3.222656 1.90625 -3.328125 C 1.8125 -3.441406 1.679688 -3.5 1.515625 -3.5 C 1.328125 -3.5 1.179688 -3.429688 1.078125 -3.296875 C 0.984375 -3.171875 0.9375 -3.003906 0.9375 -2.796875 L 0.140625 -2.796875 L 0.140625 -2.8125 C 0.128906 -3.175781 0.25 -3.484375 0.5 -3.734375 C 0.75 -3.992188 1.085938 -4.125 1.515625 -4.125 C 1.929688 -4.125 2.257812 -4.015625 2.5 -3.796875 C 2.738281 -3.578125 2.859375 -3.285156 2.859375 -2.921875 C 2.859375 -2.679688 2.789062 -2.457031 2.65625 -2.25 C 2.519531 -2.039062 2.296875 -1.769531 1.984375 -1.4375 L 1.265625 -0.640625 L 1.265625 -0.625 L 2.328125 -0.625 L 2.359375 -1.03125 L 2.984375 -1.03125 L 2.984375 0 Z M 0.203125 0 "/></g></g></g><g fill="#211d1d" fill-opacity="1"><g transform="translate(218.267308, 163.557913)"><g><path d="M 0.1875 -0.484375 L 0.875 -0.578125 L 0.875 -3.328125 L 0.171875 -3.328125 L 0.171875 -3.796875 L 1.6875 -4.0625 L 1.6875 -0.578125 L 2.375 -0.484375 L 2.375 0 L 0.1875 0 Z M 0.1875 -0.484375 "/></g></g></g></svg>